<svg width="434" height="471" viewBox="0 0 434 471" fill="none" xmlns="http://www.w3.org/2000/svg">
<path d="M51.8122 265.094L38.2951 265.371L31.4335 265.494C29.136 265.494 26.8283 265.494 24.5308 265.546H24.0774V265.094L24.0156 253.622V253.099H24.5308L38.1715 253.16C42.7253 253.16 47.2687 253.273 51.8122 253.324H52.1007V253.601C52.1007 255.539 52.008 257.477 51.9668 259.394L51.8122 265.094ZM51.8122 265.094L51.668 259.291C51.668 257.384 51.5547 255.498 51.5341 253.622L51.8122 253.898C47.2687 253.95 42.7253 254.063 38.1715 254.063L24.5308 254.134L25.0459 253.622V265.094L24.5823 264.633C26.8283 264.633 29.0742 264.633 31.3305 264.684L38.1097 264.807L51.8122 265.094Z" fill="#EBEBEB"/>
<path d="M36.5949 279.561L23.0778 279.838L16.2163 279.961C13.9188 279.961 11.611 279.961 9.31347 280.012H8.86016V279.561L8.79834 268.088V267.596H9.31347L22.9542 267.658C27.4977 267.658 32.0515 267.77 36.5949 267.822H36.8834V268.099C36.8834 270.036 36.801 271.974 36.7495 273.891L36.5949 279.561ZM36.5949 279.561L36.4507 273.748C36.3992 271.841 36.3374 269.954 36.3168 268.078L36.5949 268.355C32.0515 268.406 27.4977 268.519 22.9542 268.519L9.31347 268.621L9.82861 268.119L9.77709 279.592L9.31347 279.131C11.5595 279.131 13.8054 279.131 16.0617 279.131L22.8409 279.254L36.5949 279.561Z" fill="#EBEBEB"/>
<path d="M195.503 212.703L181.986 212.99L175.125 213.103C172.827 213.154 170.53 213.103 168.222 213.164H167.769V212.703L167.707 201.23V200.718H168.222L181.863 200.779C186.416 200.779 190.96 200.902 195.503 200.953H195.792V201.23C195.792 203.178 195.699 205.116 195.658 207.023L195.503 212.703ZM195.503 212.703L195.359 206.91C195.359 204.993 195.246 203.107 195.225 201.23L195.503 201.507C190.96 201.569 186.416 201.671 181.863 201.681L168.222 201.743L168.737 201.23L168.655 212.703L168.191 212.252C170.447 212.252 172.683 212.252 174.939 212.252L181.718 212.365L195.503 212.703Z" fill="#EBEBEB"/>
<path d="M180.287 227.17L166.769 227.457L159.908 227.57C157.61 227.57 155.303 227.57 153.005 227.631H152.552V227.17L152.49 215.697V215.184H153.005L166.646 215.246C171.2 215.246 175.743 215.369 180.287 215.42H180.575V215.697C180.575 217.645 180.482 219.583 180.431 221.49L180.287 227.17ZM180.287 227.17L180.142 221.377C180.142 219.46 180.029 217.573 180.008 215.697L180.287 215.974C175.743 215.974 171.2 216.138 166.646 216.148L153.005 216.21L153.52 215.697L153.469 227.17L153.005 226.708C155.251 226.708 157.497 226.708 159.753 226.77L166.533 226.883L180.287 227.17Z" fill="#EBEBEB"/>
<path d="M210.957 227.17L197.44 227.457L190.579 227.57C188.281 227.57 185.973 227.57 183.676 227.631H183.223V227.17V215.697V215.184H183.738L197.379 215.246C201.922 215.246 206.476 215.369 211.019 215.42H211.308V215.697C211.308 217.645 211.225 219.583 211.174 221.49L210.957 227.17ZM210.957 227.17L210.813 221.377C210.813 219.46 210.7 217.573 210.679 215.697L210.957 215.974C206.414 215.974 201.86 216.138 197.317 216.148L183.676 216.21L184.191 215.697L184.109 227.17L183.645 226.708C185.891 226.708 188.137 226.708 190.393 226.77L197.172 226.883L210.957 227.17Z" fill="#EBEBEB"/>
<path d="M428.962 279.561L415.435 279.838L408.573 279.961C406.286 279.961 403.978 279.961 401.681 280.012H401.217V279.561L401.166 268.088V267.596H401.681L415.321 267.658C419.865 267.658 424.419 267.77 428.962 267.822H429.24V268.099C429.24 270.036 429.158 271.974 429.106 273.891L428.962 279.561ZM428.962 279.561L428.818 273.758C428.818 271.851 428.694 269.965 428.684 268.088L428.962 268.365C424.419 268.416 419.865 268.529 415.321 268.529L401.681 268.591L402.196 268.088L402.134 279.561L401.681 279.1C403.927 279.1 406.173 279.1 408.419 279.1L415.198 279.223L428.962 279.561Z" fill="#EBEBEB"/>
<path d="M413.745 55.5698L400.218 55.8569L393.356 55.9696C391.069 55.9696 388.761 55.9696 386.463 56.0312H386.041V55.5698V44.097V43.5844H386.566L400.207 43.6459C404.751 43.6459 409.294 43.7689 413.848 43.8202H414.126V44.0867C414.126 46.0348 414.033 47.9725 413.992 49.8795L413.745 55.5698ZM413.745 55.5698L413.601 49.777C413.549 47.8597 413.477 45.9732 413.456 44.097L413.745 44.3738C409.191 44.3738 404.648 44.5379 400.104 44.5481L386.463 44.6096L386.979 44.097L386.917 55.5698L386.463 55.1084C388.709 55.1084 390.945 55.1084 393.201 55.1699L399.981 55.2827L413.745 55.5698Z" fill="#EBEBEB"/>
<path d="M428.962 70.0363L415.435 70.3234L408.573 70.4362C406.286 70.4362 403.978 70.4362 401.681 70.4977H401.217V70.0363L401.166 58.5635V58.0509H401.681L415.321 58.1124C419.865 58.1124 424.419 58.2355 428.962 58.2867H429.24V58.5635C429.24 60.5116 429.158 62.4493 429.106 64.3563L428.962 70.0363ZM428.962 70.0363L428.818 64.2436C428.818 62.3263 428.694 60.4398 428.684 58.5635L428.962 58.8404C424.419 58.8404 419.865 59.0044 415.321 59.0147L401.681 59.0762L402.196 58.5635L402.134 70.0363L401.681 69.575C403.927 69.575 406.173 69.575 408.419 69.6365L415.198 69.7493L428.962 70.0363Z" fill="#EBEBEB"/>
<path d="M51.8122 55.5698L38.2951 55.8569L31.4335 55.9696C29.136 55.9696 26.8283 55.9696 24.5308 56.0312H24.0774V55.5698L24.0156 44.0867V43.5741H24.5308L38.1715 43.6356C42.7253 43.6356 47.2687 43.7586 51.8122 43.8099H52.1007V44.0867C52.1007 46.0348 52.008 47.9725 51.9668 49.8795L51.8122 55.5698ZM51.8122 55.5698L51.668 49.777C51.668 47.8597 51.5547 45.9732 51.5341 44.097L51.8122 44.3738C47.2687 44.3738 42.7253 44.5379 38.1715 44.5481L24.5308 44.6096L25.0459 44.097V55.5698L24.5823 55.1084C26.8283 55.1084 29.0742 55.1084 31.3305 55.1699L38.1097 55.2827L51.8122 55.5698Z" fill="#EBEBEB"/>
<path d="M43.1787 0H42.1484V96.878H43.1787V0Z" fill="#C7C7C7"/>
<path d="M85.3164 137.797L81.8856 145.302H3.43074L0.0102539 137.797L33.4115 114.789H51.9151L85.3164 137.797Z" fill="#EBEBEB"/>
<path d="M54.2331 92.6231L51.915 114.79H33.4114L31.0933 92.6231H54.2331Z" fill="#DBDBDB"/>
<path d="M85.3061 137.797L81.8753 145.302H3.42049L0 137.797H85.3061Z" fill="#DBDBDB"/>
<path d="M134.759 0H133.729V72.6713H134.759V0Z" fill="#C7C7C7"/>
<path d="M176.897 113.58L173.466 121.085H95.0113L91.5908 113.58L124.992 90.5726H143.496L176.897 113.58Z" fill="#EBEBEB"/>
<path d="M145.814 68.4061L143.496 90.5725H124.992L122.674 68.4061H145.814Z" fill="#DBDBDB"/>
<path d="M176.897 113.59L173.466 121.095H95.0113L91.5908 113.59H176.897Z" fill="#DBDBDB"/>
<path d="M4.27539 393.838L57.9935 393.582L111.712 393.5L219.138 393.325L326.564 393.489L380.282 393.582L434 393.838L380.282 394.084L326.564 394.176L219.138 394.351L111.712 394.176L57.9935 394.084L4.27539 393.838Z" fill="#263238"/>
<path d="M219.138 471C330.474 471 420.73 458.372 420.73 442.795C420.73 427.217 330.474 414.589 219.138 414.589C107.801 414.589 17.5454 427.217 17.5454 442.795C17.5454 458.372 107.801 471 219.138 471Z" fill="#EBEBEB"/>
<path d="M401.681 55.4467V349.505H178.051V55.4467H181.832L183.254 61.5984L189.363 65.6174V70.2516H196.575V63.0747H191.012L191.558 55.5082H207.547L208.021 63.0747H206.991V70.2516H214.203V63.0747H211.112L212.07 55.5082H222.919L224.598 63.0747V70.2516H231.81V63.0747H229.08L230.667 55.5082H242.834L243.473 63.0747H242.185V70.2516H249.397V63.0747H246.388V55.4467H258.082L258.391 57.7023L259.988 63.0132H259.792V70.1901H267.004V63.0132H264.253L263.707 58.1329L263.439 55.4467H279.13V58.256C279.13 58.4303 280.48 63.0132 280.48 63.0132H277.451V70.1901H284.663V63.0132H282.747V55.4467H296.944L296.171 63.0132H295.069V70.1901H302.28V63.0132H300.529L300.127 55.4467H312.326L312.82 63.0132H312.645V70.1901H319.857V63.0132H316.848L314.705 55.4467H329.912L330.252 63.0132V70.1901H337.464V63.0132H334.528L333.662 55.4467H345.861L347.921 65.5046V70.2004H355.133V63.0235H351.156L352.506 55.457H365.539V70.2004H372.751V63.0235H368.259L367.228 55.457H378.726L383.167 65.0638V70.1901H390.379V63.0132H385.444L385.052 55.4467H401.681Z" fill="#EBEBEB"/>
<path d="M384.928 94.6635H194.803V95.4324H384.928V94.6635Z" fill="#DBDBDB"/>
<path d="M384.928 104.834H194.803V105.603H384.928V104.834Z" fill="#DBDBDB"/>
<path d="M384.928 115.005H194.803V115.774H384.928V115.005Z" fill="#DBDBDB"/>
<path d="M384.928 125.186H194.803V125.955H384.928V125.186Z" fill="#DBDBDB"/>
<path d="M384.928 135.357H194.803V136.126H384.928V135.357Z" fill="#DBDBDB"/>
<path d="M384.928 145.527H194.803V146.296H384.928V145.527Z" fill="#DBDBDB"/>
<path d="M384.928 155.698H194.803V156.467H384.928V155.698Z" fill="#DBDBDB"/>
<path d="M384.928 165.869H194.803V166.638H384.928V165.869Z" fill="#DBDBDB"/>
<path d="M384.928 176.039H194.803V176.808H384.928V176.039Z" fill="#DBDBDB"/>
<path d="M384.928 186.22H194.803V186.989H384.928V186.22Z" fill="#DBDBDB"/>
<path d="M384.928 196.391H194.803V197.16H384.928V196.391Z" fill="#DBDBDB"/>
<path d="M384.928 206.562H194.803V207.331H384.928V206.562Z" fill="#DBDBDB"/>
<path d="M384.928 216.732H194.803V217.501H384.928V216.732Z" fill="#DBDBDB"/>
<path d="M384.928 226.903H194.803V227.672H384.928V226.903Z" fill="#DBDBDB"/>
<path d="M384.928 237.074H194.803V237.843H384.928V237.074Z" fill="#DBDBDB"/>
<path d="M384.928 247.245H194.803V248.013H384.928V247.245Z" fill="#DBDBDB"/>
<path d="M384.928 257.425H194.803V258.194H384.928V257.425Z" fill="#DBDBDB"/>
<path d="M384.928 267.596H194.803V268.365H384.928V267.596Z" fill="#DBDBDB"/>
<path d="M384.928 277.767H194.803V278.536H384.928V277.767Z" fill="#DBDBDB"/>
<path d="M384.928 287.938H194.803V288.707H384.928V287.938Z" fill="#DBDBDB"/>
<path d="M384.928 298.108H194.803V298.877H384.928V298.108Z" fill="#DBDBDB"/>
<path d="M384.928 308.279H194.803V309.048H384.928V308.279Z" fill="#DBDBDB"/>
<path d="M384.928 318.45H194.803V319.219H384.928V318.45Z" fill="#DBDBDB"/>
<path d="M384.928 328.631H194.803V329.4H384.928V328.631Z" fill="#DBDBDB"/>
<path d="M201.159 102.23L223.331 101.974L245.512 101.83L289.865 101.717L334.218 101.83L356.4 101.974L378.571 102.23L356.4 102.476L334.218 102.62L289.865 102.743L245.512 102.62L223.331 102.476L201.159 102.23Z" fill="#263238"/>
<path d="M201.159 112.401C212.08 112.185 223.001 112.093 233.922 112.011L266.684 111.888L299.447 112.001L315.828 112.144L332.209 112.401L315.828 112.647L299.498 112.78L266.736 112.903L233.973 112.78C223.001 112.708 212.08 112.606 201.159 112.401Z" fill="#263238"/>
<path d="M201.159 122.571L223.331 122.325L245.512 122.182L289.865 122.059L334.218 122.182L356.4 122.325L378.571 122.571L356.4 122.817L334.218 122.961L289.865 123.084L245.512 122.961L223.331 122.817L201.159 122.571Z" fill="#263238"/>
<path d="M201.159 132.742C208.309 132.527 215.449 132.435 222.599 132.353L244.039 132.229L265.469 132.353L276.194 132.496C279.758 132.578 283.334 132.629 286.909 132.742C283.334 132.855 279.758 132.906 276.194 132.998L265.469 133.142L244.039 133.255L222.599 133.132C215.449 133.05 208.309 132.957 201.159 132.742Z" fill="#263238"/>
<path d="M201.159 153.083L223.331 152.837L245.512 152.694L289.865 152.571L334.218 152.694L356.4 152.837L378.571 153.083L356.4 153.34L334.218 153.483L289.865 153.596L245.512 153.483L223.331 153.34L201.159 153.083Z" fill="#263238"/>
<path d="M201.159 163.264C212.06 163.049 222.97 162.947 233.87 162.865L266.581 162.752L299.282 162.865L315.643 163.008L331.993 163.264L315.643 163.51L299.282 163.654L266.581 163.767L233.87 163.654C222.97 163.572 212.06 163.469 201.159 163.264Z" fill="#263238"/>
<path d="M201.159 173.435C213.286 173.22 225.402 173.117 237.528 173.035L273.886 172.922L310.244 173.035L328.428 173.179L346.613 173.435L328.428 173.681L310.244 173.825L273.886 173.948L237.528 173.825C225.402 173.743 213.286 173.64 201.159 173.435Z" fill="#263238"/>
<path d="M201.159 193.777C210.195 193.561 219.23 193.469 228.255 193.387L255.362 193.264L282.458 193.377L296.006 193.52L309.554 193.777L296.006 194.023L282.458 194.166L255.362 194.289L228.255 194.166C219.23 194.084 210.195 193.992 201.159 193.777Z" fill="#263238"/>
<path d="M201.159 203.947L223.331 203.701L245.512 203.558L289.865 203.435L334.218 203.558L356.4 203.701L378.571 203.947L356.4 204.204L334.218 204.347L289.865 204.46L245.512 204.337L223.331 204.193L201.159 203.947Z" fill="#263238"/>
<path d="M201.159 214.118C213.286 213.913 225.402 213.81 237.528 213.728L273.886 213.605L310.244 213.728L328.428 213.872L346.613 214.118L328.428 214.374L310.244 214.518L273.886 214.63L237.528 214.518C225.402 214.436 213.286 214.333 201.159 214.118Z" fill="#263238"/>
<path d="M201.159 224.289L223.331 224.043L245.512 223.899L289.865 223.776L334.218 223.899L356.4 224.043L378.571 224.289L356.4 224.545L334.218 224.688L289.865 224.801L245.512 224.688L223.331 224.545L201.159 224.289Z" fill="#263238"/>
<path d="M201.159 234.459C209.989 234.254 218.828 234.152 227.658 234.07L254.156 233.957L280.655 234.07L293.904 234.213L307.153 234.459L293.904 234.716L280.655 234.859L254.156 234.972L227.658 234.859C218.828 234.787 209.989 234.675 201.159 234.459Z" fill="#263238"/>
<path d="M197.811 189.112H125.754C124.804 183.172 124.284 177.173 124.199 171.159V98.9285H214.862V172.092C214.821 179.423 197.811 189.112 197.811 189.112Z" fill="#F9EB02"/>
<path opacity="0.2" d="M214.811 172.082C214.811 179.187 198.831 188.486 197.842 189.06C200.49 187.276 200.037 173.158 200.037 173.158C200.037 173.158 214.543 171.282 214.811 172.082Z" fill="black"/>
<path d="M137.541 120.234C148.194 119.372 158.857 119.208 169.479 119.126C180.101 119.044 190.795 119.362 201.417 120.234C190.764 121.115 180.101 121.259 169.479 121.351C158.857 121.444 148.194 121.105 137.541 120.234Z" fill="white"/>
<path d="M137.541 132.127C145.927 131.255 154.314 131.102 162.69 131.009C171.066 130.917 179.462 131.255 187.849 132.127C179.487 132.932 171.09 133.319 162.69 133.285C154.314 133.203 145.927 132.998 137.541 132.127Z" fill="white"/>
<path d="M137.541 144.02C145.927 143.149 154.314 142.943 162.69 142.902C171.089 142.855 179.486 143.228 187.849 144.02C179.462 144.892 171.076 145.097 162.69 145.138C154.303 145.179 145.927 144.892 137.541 144.02Z" fill="white"/>
<path d="M369.351 390.188H283.406C283.406 390.188 279.151 381.453 279.151 373.168V304.66H365.096V374.05C365.096 380.991 369.351 390.188 369.351 390.188Z" fill="#FFC727"/>
<path opacity="0.8" d="M369.351 390.188H283.406C283.406 390.188 279.151 381.453 279.151 373.168V304.66H365.096V374.05C365.096 380.991 369.351 390.188 369.351 390.188Z" fill="white"/>
<path d="M365.096 310.494H279.151V310.75H365.096V310.494Z" fill="#DBDBDB"/>
<path d="M365.096 316.635H279.151V316.891H365.096V316.635Z" fill="#DBDBDB"/>
<path d="M365.096 322.787H279.151V323.043H365.096V322.787Z" fill="#DBDBDB"/>
<path d="M365.096 328.928H279.151V329.184H365.096V328.928Z" fill="#DBDBDB"/>
<path d="M365.096 335.08H279.151V335.336H365.096V335.08Z" fill="#DBDBDB"/>
<path d="M365.096 341.221H279.151V341.477H365.096V341.221Z" fill="#DBDBDB"/>
<path d="M365.096 347.362H279.151V347.619H365.096V347.362Z" fill="#DBDBDB"/>
<path d="M365.096 353.514H279.151V353.77H365.096V353.514Z" fill="#DBDBDB"/>
<path d="M365.096 359.655H279.151V359.912H365.096V359.655Z" fill="#DBDBDB"/>
<path d="M365.096 365.807H279.151V366.063H365.096V365.807Z" fill="#DBDBDB"/>
<path d="M365.096 371.948H279.151V372.205H365.096V371.948Z" fill="#DBDBDB"/>
<path d="M365.528 378.326H279.635C279.629 378.24 279.629 378.155 279.635 378.069H365.528C365.497 378.182 365.518 378.326 365.528 378.326Z" fill="#DBDBDB"/>
<path d="M367.156 384.477H281.191C281.157 384.394 281.129 384.308 281.108 384.221H367.074C367.095 384.308 367.122 384.394 367.156 384.477Z" fill="#DBDBDB"/>
<path d="M288.969 390.188H288.702C288.022 388.343 287.342 386.395 286.744 384.498C286.744 384.405 286.693 384.323 286.672 384.241C286.05 382.312 285.548 380.347 285.168 378.356C285.163 378.271 285.163 378.185 285.168 378.1C285.002 377.217 284.913 376.322 284.9 375.424V304.68H285.075V375.424C285.088 376.322 285.177 377.217 285.343 378.1C285.343 378.182 285.343 378.264 285.343 378.356C285.732 380.346 286.238 382.311 286.857 384.241C286.857 384.323 286.909 384.416 286.94 384.498C287.61 386.405 288.289 388.353 288.969 390.188Z" fill="#DBDBDB"/>
<path d="M295.151 390.188H294.883C294.203 388.343 293.523 386.395 292.926 384.498C292.926 384.405 292.874 384.323 292.854 384.241C292.232 382.312 291.73 380.347 291.349 378.356C291.345 378.271 291.345 378.185 291.349 378.1C291.184 377.217 291.094 376.322 291.082 375.424V304.68H291.257V375.424C291.269 376.322 291.359 377.217 291.525 378.1C291.525 378.182 291.525 378.264 291.525 378.356C291.914 380.346 292.419 382.311 293.039 384.241C293.039 384.323 293.091 384.416 293.121 384.498C293.791 386.405 294.471 388.353 295.151 390.188Z" fill="#DBDBDB"/>
<path d="M301.322 390.188H301.054C300.374 388.343 299.694 386.395 299.097 384.498C299.097 384.405 299.045 384.323 299.025 384.241C298.403 382.312 297.901 380.347 297.521 378.356C297.498 378.272 297.481 378.186 297.469 378.1C297.304 377.217 297.214 376.322 297.201 375.424V304.68H297.438V375.424C297.451 376.322 297.541 377.217 297.706 378.1C297.706 378.182 297.706 378.264 297.706 378.356C298.095 380.346 298.601 382.311 299.221 384.241C299.221 384.323 299.221 384.416 299.303 384.498C299.962 386.405 300.642 388.353 301.322 390.188Z" fill="#DBDBDB"/>
<path d="M307.504 390.188H307.236C306.556 388.343 305.876 386.395 305.278 384.498C305.278 384.405 305.227 384.323 305.196 384.241C304.579 382.311 304.077 380.346 303.692 378.356C303.692 378.274 303.692 378.182 303.692 378.1C303.526 377.217 303.437 376.322 303.424 375.424V304.68H303.62V375.424C303.632 376.322 303.722 377.217 303.887 378.1C303.887 378.182 303.887 378.264 303.887 378.356C304.277 380.346 304.782 382.311 305.402 384.241C305.402 384.323 305.402 384.416 305.484 384.498C306.144 386.405 306.824 388.353 307.504 390.188Z" fill="#DBDBDB"/>
<path d="M313.675 390.188H313.407C312.727 388.343 312.047 386.395 311.45 384.498C311.45 384.405 311.398 384.323 311.378 384.241C310.756 382.312 310.254 380.347 309.873 378.356C309.851 378.272 309.834 378.186 309.822 378.1C309.656 377.217 309.567 376.322 309.554 375.424V304.68H309.801V375.424C309.814 376.322 309.904 377.217 310.069 378.1C310.069 378.182 310.069 378.264 310.069 378.356C310.458 380.346 310.964 382.311 311.584 384.241C311.584 384.323 311.635 384.416 311.666 384.498C312.315 386.405 312.995 388.353 313.675 390.188Z" fill="#DBDBDB"/>
<path d="M319.857 390.188H319.589C318.909 388.343 318.229 386.395 317.631 384.498C317.631 384.405 317.58 384.323 317.559 384.241C316.938 382.312 316.435 380.347 316.055 378.356C316.033 378.272 316.016 378.186 316.003 378.1C315.838 377.217 315.748 376.322 315.736 375.424V304.68H315.983V375.424C315.996 376.322 316.085 377.217 316.251 378.1C316.251 378.182 316.251 378.264 316.251 378.356C316.64 380.346 317.145 382.311 317.765 384.241C317.765 384.323 317.817 384.416 317.848 384.498C318.497 386.405 319.177 388.353 319.857 390.188Z" fill="#DBDBDB"/>
<path d="M326.028 390.188H325.76C325.08 388.343 324.4 386.395 323.803 384.498C323.803 384.405 323.803 384.323 323.72 384.241C323.104 382.311 322.601 380.346 322.216 378.356C322.216 378.274 322.216 378.182 322.216 378.1C322.051 377.217 321.961 376.322 321.948 375.424V304.68H322.165V375.424C322.177 376.322 322.267 377.217 322.432 378.1C322.432 378.182 322.432 378.264 322.432 378.356C322.822 380.346 323.327 382.311 323.947 384.241C323.947 384.323 323.998 384.416 324.029 384.498C324.668 386.405 325.348 388.353 326.028 390.188Z" fill="#DBDBDB"/>
<path d="M332.21 390.188H331.942C331.262 388.343 330.582 386.395 329.984 384.498C329.984 384.405 329.984 384.323 329.902 384.241C329.285 382.311 328.783 380.346 328.398 378.356C328.398 378.274 328.398 378.182 328.398 378.1C328.232 377.217 328.143 376.322 328.13 375.424V304.68H328.346V375.424C328.359 376.322 328.449 377.217 328.614 378.1C328.614 378.182 328.614 378.264 328.614 378.356C329.003 380.346 329.509 382.311 330.129 384.241C330.129 384.323 330.18 384.416 330.211 384.498C330.85 386.405 331.53 388.353 332.21 390.188Z" fill="#DBDBDB"/>
<path d="M338.381 390.188H338.113C337.433 388.343 336.753 386.395 336.156 384.498C336.156 384.405 336.104 384.323 336.084 384.241C335.462 382.312 334.96 380.347 334.579 378.356C334.557 378.272 334.54 378.186 334.528 378.1C334.362 377.217 334.273 376.322 334.26 375.424V304.68H334.528V375.424C334.541 376.322 334.63 377.217 334.796 378.1C334.796 378.182 334.796 378.264 334.796 378.356C335.185 380.346 335.691 382.311 336.31 384.241C336.31 384.323 336.362 384.416 336.393 384.498C337.021 386.405 337.701 388.353 338.381 390.188Z" fill="#DBDBDB"/>
<path d="M344.562 390.188H344.295C343.615 388.343 342.935 386.395 342.337 384.498C342.337 384.405 342.286 384.323 342.265 384.241C341.643 382.312 341.141 380.347 340.761 378.356C340.739 378.272 340.721 378.186 340.709 378.1C340.544 377.217 340.454 376.322 340.441 375.424V304.68H340.709V375.424C340.722 376.322 340.812 377.217 340.977 378.1C340.977 378.182 340.977 378.264 340.977 378.356C341.366 380.346 341.872 382.311 342.492 384.241C342.492 384.323 342.543 384.416 342.574 384.498C343.203 386.405 343.882 388.353 344.562 390.188Z" fill="#DBDBDB"/>
<path d="M350.734 390.188H350.466C349.786 388.343 349.106 386.394 348.508 384.498C348.508 384.405 348.457 384.323 348.426 384.241C347.798 382.301 347.285 380.326 346.891 378.326C346.891 378.244 346.891 378.151 346.891 378.069C346.725 377.186 346.636 376.291 346.623 375.393V304.65H346.891V375.393C346.904 376.291 346.993 377.186 347.159 378.069C347.159 378.151 347.159 378.233 347.159 378.326C347.548 380.315 348.054 382.28 348.673 384.211C348.673 384.293 348.725 384.385 348.756 384.467C349.374 386.405 350.054 388.353 350.734 390.188Z" fill="#DBDBDB"/>
<path d="M356.915 390.188H356.648C355.968 388.343 355.288 386.394 354.69 384.498C354.69 384.405 354.639 384.323 354.608 384.241C353.979 382.301 353.467 380.326 353.073 378.326C353.073 378.244 353.073 378.151 353.073 378.069C352.907 377.186 352.817 376.291 352.805 375.393V304.65H353.073V375.393C353.085 376.291 353.175 377.186 353.34 378.069C353.34 378.151 353.34 378.233 353.34 378.326C353.729 380.315 354.235 382.28 354.855 384.211C354.855 384.293 354.906 384.385 354.937 384.467C355.556 386.405 356.235 388.353 356.915 390.188Z" fill="#DBDBDB"/>
<path d="M363.087 390.188H362.819C362.139 388.343 361.459 386.394 360.861 384.498C360.861 384.405 360.81 384.323 360.789 384.241C360.156 382.303 359.643 380.327 359.254 378.326C359.249 378.24 359.249 378.155 359.254 378.069C359.089 377.186 358.999 376.291 358.986 375.393V304.65H359.254V375.393C359.267 376.291 359.357 377.186 359.522 378.069C359.522 378.151 359.522 378.233 359.522 378.326C359.911 380.315 360.417 382.28 361.037 384.211C361.037 384.293 361.088 384.385 361.119 384.467C361.727 386.405 362.407 388.353 363.087 390.188Z" fill="#DBDBDB"/>
<path d="M292.07 321.505C297.15 321.29 302.239 321.197 307.318 321.115C312.397 321.033 317.477 321.033 322.566 320.992C327.656 320.951 332.725 320.992 337.804 321.115L345.428 321.259C347.973 321.341 350.507 321.392 353.052 321.505C350.507 321.618 347.973 321.669 345.428 321.761L337.804 321.905C332.725 321.977 327.645 321.977 322.566 322.018C317.487 322.059 312.397 322.018 307.318 321.895C302.239 321.772 297.15 321.72 292.07 321.505Z" fill="#263238"/>
<path d="M292.07 327.534C297.15 327.329 302.239 327.226 307.318 327.144C312.397 327.062 317.477 327.062 322.566 327.021C327.656 326.98 332.725 327.021 337.804 327.144L345.428 327.288C347.973 327.37 350.507 327.421 353.052 327.534C350.507 327.657 347.973 327.698 345.428 327.79L337.804 327.933C332.725 328.015 327.645 328.005 322.566 328.046C317.487 328.087 312.397 328.046 307.318 327.933C302.239 327.821 297.15 327.749 292.07 327.534Z" fill="#263238"/>
<path d="M292.07 333.562C295.707 333.357 299.282 333.255 302.971 333.173C306.659 333.091 310.234 333.07 313.871 333.05C317.508 333.029 321.134 333.05 324.771 333.173L330.211 333.316C332.034 333.398 333.848 333.449 335.661 333.562C333.848 333.685 332.034 333.736 330.211 333.818L324.771 333.962C321.134 334.054 317.497 334.065 313.871 334.075C310.244 334.085 306.597 334.075 302.971 333.962C299.344 333.849 295.707 333.777 292.07 333.562Z" fill="#263238"/>
<path d="M292.07 345.63C294.275 345.414 296.48 345.322 298.685 345.24C300.889 345.158 303.094 345.127 305.299 345.117C307.504 345.107 309.708 345.117 311.924 345.23L315.231 345.373C316.333 345.466 317.435 345.507 318.538 345.63C317.435 345.742 316.333 345.794 315.231 345.876L311.924 346.019C309.708 346.112 307.504 346.132 305.299 346.142C303.094 346.153 300.889 346.142 298.685 346.019C296.48 345.896 294.275 345.835 292.07 345.63Z" fill="#263238"/>
<path d="M292.07 351.669C297.15 351.453 302.239 351.361 307.318 351.279C312.397 351.197 317.477 351.197 322.566 351.156C327.656 351.115 332.725 351.156 337.804 351.269L345.428 351.412C347.973 351.504 350.507 351.556 353.052 351.669C350.507 351.781 347.973 351.833 345.428 351.915L337.804 352.058C332.725 352.14 327.645 352.14 322.566 352.181C317.487 352.222 312.397 352.181 307.318 352.058C302.239 351.935 297.15 351.874 292.07 351.669Z" fill="#263238"/>
<path d="M292.07 357.687C296.387 357.482 300.694 357.379 305.01 357.297C309.327 357.215 313.634 357.215 317.951 357.174C322.267 357.133 326.574 357.174 330.891 357.297L337.361 357.441C339.514 357.523 341.678 357.574 343.831 357.687C341.678 357.8 339.514 357.851 337.361 357.943L330.891 358.087C326.574 358.169 322.267 358.158 317.951 358.199C313.634 358.241 309.327 358.2 305.01 358.076C300.694 357.953 296.408 357.902 292.07 357.687Z" fill="#263238"/>
<path d="M292.07 363.715C295.635 363.51 299.189 363.408 302.754 363.326C306.319 363.244 309.873 363.223 313.438 363.203C317.003 363.182 320.557 363.203 324.122 363.326L329.469 363.469C331.251 363.551 333.023 363.603 334.806 363.715C333.023 363.838 331.251 363.89 329.469 363.972L324.122 364.115C320.557 364.208 317.003 364.218 313.438 364.228C309.873 364.238 306.319 364.228 302.754 364.115C299.189 364.003 295.635 363.972 292.07 363.715Z" fill="#263238"/>
<g opacity="0.5">
<path opacity="0.5" d="M303.053 295.955L299.303 298.385L303.537 296.765L305.134 299.421L303.424 300.907L305.608 300.2L306.216 301.225L303.888 302.907L306.546 301.768L307.009 302.537L275.597 321.218L274.216 318.921L276.678 317.301L273.855 318.306L273.268 317.332L275.112 316.02L272.959 316.809L272.671 316.338L275.607 313.969L271.929 315.107L270.929 313.436L302.342 294.766L303.053 295.955Z" fill="white"/>
<path opacity="0.5" d="M374.276 319.372L370.804 316.676L373.657 320.09L371.648 322.448L369.711 321.341L371.061 323.135L370.278 324.048L367.97 322.438L369.866 324.54L369.289 325.216L341.853 302.035L343.594 299.995L345.881 301.758L344.058 299.462L344.8 298.58L346.613 299.882L345.191 298.129L345.552 297.708L348.715 299.687L346.479 296.611L347.736 295.135L375.172 318.316L374.276 319.372Z" fill="white"/>
</g>
<path d="M421.606 268.16H363.829L350.899 259.332L363.829 250.515H421.606V268.16Z" fill="#F9EB02"/>
<path d="M434 245.942H376.212L363.293 237.115L376.212 228.287H434V245.942Z" fill="#455A64"/>
<path d="M47.0835 439.934L211.669 440.631C251.674 409.371 255.805 363.059 227.267 335.028C209.989 318.05 188.055 321.474 167.171 318.768H167.11C159.734 318.004 152.558 315.92 145.927 312.616C124.426 301.338 112.299 274.681 94.2079 252.289C91.9516 249.48 89.6026 246.742 87.1196 244.087C72.2426 228.277 42.6327 227.764 27.1478 249.982C-12.1878 306.413 5.87277 390.465 47.0835 439.934Z" fill="#DBDBDB"/>
<path d="M43.4467 310.719C47.7532 377.915 125.744 402.994 174.445 382.868C216.799 365.366 202.932 325.452 167.233 318.726H167.171C159.796 317.963 152.62 315.878 145.989 312.575C124.487 301.297 112.361 274.64 94.2698 252.248C67.2768 238.273 40.2838 261.506 43.4467 310.719Z" fill="#C7C7C7"/>
<path d="M100.543 218.998C112.278 230.071 120.345 258.871 114.4 277.049C107.312 298.703 87.9019 309.755 71.9843 304.629C57.5606 299.974 51.1626 285.436 56.4685 274.619C61.6198 264.182 71.3868 260.358 73.2 251.038C74.0654 246.588 72.5716 239.206 72.9425 232.501C73.6018 220.331 91.3842 210.386 100.543 218.998Z" fill="#263238"/>
<path d="M54.5317 277.121C55.1502 274.856 56.1125 272.699 57.3856 270.723C58.598 268.797 60.0368 267.021 61.6715 265.433C63.2993 263.864 64.8962 262.244 66.4416 260.553C68.032 258.84 69.4151 256.947 70.5627 254.914C71.1575 253.859 71.6574 252.754 72.0566 251.612C72.418 250.422 72.6325 249.193 72.6953 247.952C72.7698 245.504 72.7148 243.053 72.5305 240.611C72.3725 238.213 72.49 235.805 72.8808 233.434C73.4383 231.104 74.3893 228.885 75.6934 226.872C74.2381 228.805 73.152 230.988 72.4893 233.311C71.9983 235.712 71.7943 238.162 71.8814 240.611C71.8814 243.051 72.0978 245.491 71.8814 247.86C71.802 249.022 71.5877 250.171 71.2427 251.284C70.8458 252.348 70.3598 253.377 69.79 254.36C67.5852 258.41 64.2575 261.537 61.1461 264.859C59.5545 266.545 58.171 268.414 57.025 270.426C55.838 272.51 54.9961 274.771 54.5317 277.121Z" fill="#263238"/>
<path d="M185.437 470.221C183.016 469.339 128.37 425.878 127.34 422.915C126.949 421.787 132.842 413.503 140.249 403.691C141.846 401.569 143.515 399.385 145.215 397.18C156.26 382.827 168.314 367.929 168.314 367.929L204.95 396.893L180.852 425.355L175.567 431.609C175.567 431.609 188.96 457.559 189.785 460.932C190.609 464.305 187.858 471.103 185.437 470.221Z" fill="#D3766A"/>
<path d="M185.437 470.221C183.016 469.339 128.371 425.878 127.341 422.915C126.867 421.541 135.665 409.586 145.216 397.18L180.853 425.355L175.567 431.609C175.567 431.609 188.961 457.559 189.785 460.932C190.609 464.305 187.858 471.103 185.437 470.221Z" fill="white"/>
<path d="M185.437 470.221C183.016 469.339 128.37 425.878 127.34 422.915C126.949 421.787 132.842 413.503 140.249 403.691L175.567 431.64C175.567 431.64 188.96 457.589 189.785 460.963C190.609 464.336 187.858 471.103 185.437 470.221Z" fill="#F9EB02"/>
<path d="M186.406 467.422C177.422 459.917 140.487 430.512 131.039 423.735C130.957 423.673 130.916 423.735 130.988 423.735C139.725 431.373 176.897 460.522 186.282 467.524C186.478 467.719 186.591 467.586 186.406 467.422Z" fill="#263238"/>
<path d="M187.838 456.185C186.842 455.347 185.682 454.725 184.431 454.358C183.181 453.991 181.867 453.887 180.574 454.052C178.243 454.325 176.109 455.486 174.619 457.292C174.619 457.343 174.681 457.425 174.733 457.374C176.494 455.817 178.716 454.87 181.064 454.676C183.412 454.482 185.76 455.051 187.755 456.298C187.77 456.304 187.787 456.305 187.802 456.3C187.818 456.296 187.832 456.286 187.841 456.273C187.851 456.26 187.855 456.245 187.855 456.229C187.854 456.212 187.848 456.197 187.838 456.185Z" fill="#263238"/>
<path d="M178.391 435.341C174.764 432.368 169.479 430.276 164.801 431.455C164.626 431.455 164.688 431.753 164.801 431.783C169.35 432.66 173.792 434.017 178.051 435.833C178.116 435.878 178.197 435.895 178.275 435.881C178.353 435.866 178.423 435.822 178.468 435.756C178.513 435.691 178.53 435.611 178.516 435.533C178.501 435.455 178.456 435.386 178.391 435.341Z" fill="#263238"/>
<path d="M180.338 438.683C176.711 435.72 171.426 433.629 166.748 434.798C166.573 434.849 166.635 435.105 166.748 435.136C171.297 436.012 175.739 437.37 179.998 439.186C180.064 439.231 180.147 439.247 180.226 439.232C180.305 439.216 180.375 439.17 180.42 439.104C180.465 439.037 180.482 438.955 180.466 438.877C180.451 438.798 180.404 438.728 180.338 438.683Z" fill="#263238"/>
<path d="M182.285 442.036C178.659 439.073 173.373 436.981 168.696 438.15C168.521 438.15 168.582 438.448 168.696 438.478C173.248 439.365 177.69 440.74 181.945 442.579C181.981 442.602 182.021 442.617 182.062 442.623C182.104 442.63 182.147 442.629 182.188 442.619C182.229 442.61 182.268 442.592 182.302 442.568C182.337 442.544 182.366 442.513 182.388 442.477C182.41 442.441 182.425 442.402 182.432 442.36C182.439 442.319 182.438 442.276 182.428 442.235C182.419 442.194 182.401 442.156 182.377 442.121C182.352 442.087 182.321 442.058 182.285 442.036Z" fill="#263238"/>
<path d="M184.232 445.389C180.605 442.415 175.32 440.324 170.653 441.493C170.467 441.544 170.54 441.8 170.653 441.831C175.202 442.706 179.644 444.063 183.902 445.881C183.968 445.924 184.048 445.94 184.125 445.925C184.203 445.909 184.271 445.864 184.314 445.799C184.358 445.733 184.374 445.654 184.358 445.577C184.343 445.5 184.297 445.432 184.232 445.389Z" fill="#263238"/>
<path d="M140.322 416.927C136.201 413.667 131.101 420.003 135.232 423.304C139.364 426.606 144.453 420.198 140.322 416.927Z" fill="white"/>
<path d="M190.166 428.749C189.548 425.744 186.045 425.386 183.583 426.062C179.453 427.308 175.726 429.613 172.775 432.747C172.76 432.759 172.748 432.773 172.74 432.79C172.732 432.807 172.727 432.826 172.727 432.844C172.727 432.863 172.732 432.882 172.74 432.899C172.748 432.916 172.76 432.93 172.775 432.942C172.738 433.022 172.719 433.111 172.721 433.199C172.723 433.288 172.745 433.376 172.785 433.455C172.826 433.534 172.884 433.603 172.956 433.656C173.027 433.709 173.11 433.745 173.198 433.762C177.257 434.039 181.553 434.839 185.561 433.865C187.931 433.301 190.764 431.64 190.166 428.749ZM179.441 432.932C177.442 432.839 175.464 432.655 173.466 432.634C175.578 431.342 177.587 429.958 179.874 428.872C180.948 428.335 182.056 427.87 183.191 427.477C184.953 426.913 191.001 426.718 188.178 430.984C186.622 433.331 181.821 433.034 179.441 432.932Z" fill="#263238"/>
<path d="M162.566 426.852C165.368 429.876 169.386 431.589 172.868 433.598C172.949 433.636 173.038 433.654 173.128 433.651C173.217 433.649 173.305 433.625 173.383 433.582C173.461 433.539 173.529 433.478 173.579 433.404C173.629 433.33 173.661 433.246 173.672 433.157C173.754 433.157 173.826 433.106 173.806 433.014C173.102 428.772 171.286 424.789 168.541 421.469C166.913 419.562 163.771 417.911 161.566 420.064C159.361 422.218 160.927 425.088 162.566 426.852ZM162.02 423.017C162.02 417.891 166.975 421.418 168.119 422.863C168.849 423.813 169.51 424.814 170.097 425.857C171.283 428.027 172.36 430.255 173.322 432.532C171.653 431.435 169.901 430.481 168.17 429.456C166.151 428.236 161.999 425.826 162.02 423.017Z" fill="#263238"/>
<path d="M241.958 341.2C239.454 360.137 192.505 414.825 187.116 421.1L185.88 422.525L147.08 392.843L147.523 392.269L181.697 347.752L79.7729 347.157L118.47 317.209C118.47 317.209 121.612 319.014 128.134 318.06C150.635 314.789 201.344 307.531 213.306 308.012C228.729 308.607 244.265 323.812 241.958 341.2Z" fill="#37474F"/>
<path d="M193.968 331.163C192.705 332.593 191.528 334.096 190.444 335.664C189.239 337.243 188.013 338.801 186.808 340.38C187.024 339.919 187.23 339.458 187.457 338.996C188.219 337.428 188.827 335.808 189.723 334.311C189.732 334.293 189.734 334.273 189.729 334.254C189.724 334.235 189.712 334.219 189.696 334.207C189.68 334.196 189.66 334.191 189.641 334.193C189.621 334.195 189.603 334.204 189.589 334.218C188.662 335.715 187.591 337.13 186.797 338.699C186.416 339.437 186.066 340.175 185.767 340.934C185.592 341.354 185.406 341.775 185.242 342.195C185.159 342.393 185.087 342.595 185.025 342.8C184.479 343.528 183.995 344.266 183.428 345.015C182.274 346.675 181.265 348.429 180.101 350.069C180.039 350.161 180.173 350.243 180.245 350.161C181.419 348.613 182.738 347.168 183.943 345.63C185.149 344.092 186.313 342.462 187.457 340.842C188.6 339.222 189.661 337.674 190.774 336.084C191.997 334.528 193.122 332.899 194.143 331.204C194.102 331.214 194.019 331.163 193.968 331.163Z" fill="#263238"/>
<path d="M100.409 281.735C105.921 292.264 127.042 325.955 138.869 327.318C146.627 328.21 176.989 322.253 181.594 314.513C183.583 311.14 177.525 289.568 173.517 290.839C169.509 292.11 145.226 297.749 142.114 297.175C139.003 296.601 113.792 272.866 104.695 267.248C89.0145 257.569 97.4421 276.065 100.409 281.735Z" fill="#D3766A"/>
<path d="M164.07 290.152L167.985 323.074C167.985 323.074 144.093 329.871 133.306 326.888C120.191 323.268 98.9466 284.852 95.9691 278.546C91.0857 268.129 91.8481 261.598 97.9266 262.808C100.296 263.259 103.459 264.859 107.415 267.935C111.536 271.113 135.449 291.916 142.815 295.617C146.926 297.79 164.07 290.152 164.07 290.152Z" fill="#455A64"/>
<path d="M164.07 290.152L167.985 323.084C167.985 323.084 164.018 324.212 158.589 325.339C150.697 326.99 139.704 328.651 133.306 326.888C120.201 323.268 98.9465 284.851 95.969 278.536C92.4352 271.01 91.848 265.505 94.1249 263.495C94.659 263.086 95.2833 262.809 95.9462 262.688C96.6091 262.567 97.2915 262.605 97.9369 262.798C100.286 263.259 103.459 264.848 107.415 267.924C111.536 271.103 135.439 291.916 142.805 295.668C146.926 297.801 164.07 290.152 164.07 290.152Z" fill="#FFC727"/>
<path d="M161.896 322.961C161.164 318.111 158.929 298.17 158.743 293.823C158.743 293.525 158.918 293.443 158.97 293.751C161.494 308.228 161.618 318.132 162.061 322.92C162.092 323.043 161.906 323.084 161.896 322.961Z" fill="#263238"/>
<path d="M95.969 278.546C98.9361 284.892 120.201 323.289 133.296 326.898C136.531 327.79 140.95 327.8 145.545 327.4L97.1229 262.695C96.594 262.61 96.0529 262.638 95.5358 262.778C95.0188 262.917 94.5377 263.166 94.1248 263.505C91.8582 265.546 92.4145 271.021 95.969 278.546Z" fill="#263238"/>
<path d="M59.5801 343.138L121.561 327.38L115.451 305.111C115.451 305.111 120.356 298.129 118.264 291.464C116.41 285.528 102.274 267.883 99.4205 265.515C94.5267 261.486 85.7695 260.132 80.9787 265.761C61.2182 288.942 59.5801 343.138 59.5801 343.138Z" fill="#FFC727"/>
<path opacity="0.1" d="M96.0205 263.423L79.5363 267.524C79.9999 266.919 80.4738 266.335 80.958 265.761L81.298 265.382L93.1255 262.47C94.1192 262.694 95.0888 263.013 96.0205 263.423ZM99.9046 265.956L76.6412 271.769C76.5382 271.943 76.4248 272.118 76.3321 272.292L100.265 266.315L99.9046 265.956ZM102.903 269.257L74.0552 276.434C73.7359 277.07 73.4165 277.726 73.1074 278.382L104.098 270.672C103.686 270.17 103.284 269.698 102.903 269.257ZM106.457 273.584L71.3147 282.36L71.1087 282.852L106.756 273.963L106.457 273.584ZM109.084 276.977L69.5839 286.841C69.3572 287.469 69.1409 288.095 68.9348 288.717L110.145 278.464C109.816 277.931 109.445 277.449 109.084 276.977ZM112.33 281.386L67.6882 292.531C67.6306 292.685 67.5825 292.842 67.5439 293.002L112.567 281.724C112.505 281.642 112.412 281.519 112.33 281.386ZM114.679 284.841L66.4416 296.888C66.287 297.493 66.1222 298.108 65.9573 298.713L115.627 286.318C115.328 285.846 115.019 285.354 114.679 284.841ZM117.378 289.393L65.0507 302.455C65.0507 302.609 64.9786 302.773 64.9374 302.927L117.574 289.783C117.519 289.648 117.453 289.518 117.378 289.393ZM118.645 293.115L64.1028 306.731L63.732 308.535L118.779 294.797C118.78 294.233 118.735 293.671 118.645 293.115ZM63.0108 312.216C63.0108 312.37 62.949 312.534 62.9283 312.688L118.223 298.887C118.223 298.723 118.305 298.57 118.336 298.406L63.0108 312.216ZM62.2896 316.44C62.1969 317.045 62.1041 317.64 62.0217 318.224L115.596 304.844C116.005 304.201 116.38 303.538 116.719 302.855L62.2896 316.44ZM116.265 308.187L61.5066 321.864L61.4448 322.325L116.41 308.607L116.265 308.187ZM117.296 311.97L61.0018 326.037C60.9296 326.642 60.8575 327.226 60.7957 327.8L117.769 313.569L117.296 311.97ZM118.635 316.86L60.4145 331.399C60.4145 331.553 60.4145 331.706 60.4145 331.86L118.831 317.281L118.635 316.86ZM119.665 320.644L60.0539 335.531C60.0539 336.146 59.9612 336.73 59.92 337.274L120.149 322.243L119.665 320.644ZM121.005 325.524L59.7036 340.842C59.7036 340.995 59.7036 341.149 59.7036 341.293L121.2 325.914L121.005 325.524Z" fill="black"/>
<path d="M107.683 274.65C109.239 276.578 110.928 278.423 112.536 280.32C111.825 278.925 111.114 277.541 110.341 276.219C110.341 276.167 110.341 276.219 110.341 276.219C111.504 277.822 112.498 279.54 113.308 281.345C114.517 282.767 115.619 284.274 116.605 285.856C117.829 287.697 118.709 289.743 119.201 291.895C119.589 294.087 119.494 296.336 118.923 298.488C118.237 300.98 117.319 303.403 116.183 305.726C116.039 306.034 115.575 305.808 115.688 305.5C117.213 301.399 118.934 297.073 118.254 292.674C117.574 288.276 114.977 284.544 112.443 280.986C110.944 278.803 109.306 276.717 107.539 274.742C107.467 274.671 107.621 274.568 107.683 274.65Z" fill="#263238"/>
<path d="M106.303 302.189C103.468 303.215 100.713 304.449 98.0604 305.88C96.752 306.618 95.4951 307.397 94.2485 308.217C93.62 308.628 92.9915 309.007 92.3528 309.386C91.712 309.813 91.0197 310.157 90.2922 310.412C90.2786 310.412 90.2655 310.417 90.2558 310.427C90.2462 310.436 90.2407 310.449 90.2407 310.463C90.2407 310.476 90.2462 310.489 90.2558 310.499C90.2655 310.509 90.2786 310.514 90.2922 310.514C91.0132 310.363 91.7224 310.161 92.4146 309.909C93.0752 309.641 93.7186 309.333 94.3412 308.986C95.6702 308.258 96.9581 307.469 98.2871 306.731C100.955 305.234 103.614 303.737 106.385 302.435C106.529 302.353 106.437 302.138 106.303 302.189Z" fill="#263238"/>
<path d="M114.143 302.824C111.681 303.215 109.242 303.742 106.838 304.403C105.633 304.731 104.469 305.131 103.305 305.572C102.748 305.777 102.202 305.993 101.656 306.218C101.11 306.444 100.471 306.792 99.8738 307.028C99.8017 307.028 99.8738 307.151 99.8738 307.131C100.461 306.926 101.069 306.813 101.667 306.638L103.439 306.116C104.634 305.767 105.818 305.429 107.003 305.09C109.373 304.373 111.743 303.686 114.143 303.04C114.328 302.989 114.277 302.804 114.143 302.824Z" fill="#263238"/>
<path d="M87.2631 265.597C87.6339 266.704 93.764 273.553 98.9463 272.825C100.626 272.589 99.7293 263.362 99.7293 263.362L99.822 262.675L101.069 252.925L89.1278 246.773L87.4176 245.963C87.4176 245.963 87.2527 248.659 87.0776 252.002V252.484C87.0776 252.668 87.0776 252.853 87.0776 253.027C87.0776 253.529 87.0158 254.052 86.9952 254.544C86.9746 255.037 86.9952 255.313 86.9952 255.723V256.933C86.8852 259.824 86.9747 262.719 87.2631 265.597Z" fill="#D3766A"/>
<path d="M87.0879 252.012C88.3069 254.604 90.0783 256.9 92.2792 258.741C94.48 260.583 97.0575 261.925 99.8323 262.675L101.079 252.925L89.1381 246.773L87.4279 245.963C87.4279 245.963 87.263 248.67 87.0879 252.012Z" fill="#263238"/>
<path d="M113.329 235.515C117.749 252.186 108.178 256.708 104.603 257.651C101.326 258.512 90.0449 261.014 83.9148 244.886C77.7847 228.759 84.1724 221.459 91.5697 219.101C98.967 216.743 108.899 218.855 113.329 235.515Z" fill="#D3766A"/>
<path d="M110.341 234.787C109.943 234.808 109.544 234.808 109.146 234.787C108.724 234.834 108.297 234.744 107.93 234.531C107.829 234.44 107.76 234.319 107.734 234.186C107.708 234.053 107.726 233.915 107.786 233.793C107.944 233.573 108.158 233.399 108.406 233.289C108.654 233.179 108.928 233.137 109.198 233.167C109.756 233.14 110.304 233.323 110.733 233.68C110.818 233.768 110.877 233.877 110.903 233.996C110.929 234.115 110.921 234.239 110.881 234.354C110.84 234.469 110.768 234.571 110.673 234.647C110.577 234.724 110.463 234.772 110.341 234.787Z" fill="#263238"/>
<path d="M98.483 236.438C98.859 236.306 99.2271 236.151 99.5854 235.977C99.9941 235.87 100.356 235.632 100.616 235.3C100.675 235.178 100.693 235.04 100.667 234.907C100.641 234.774 100.573 234.653 100.471 234.562C100.243 234.415 99.98 234.331 99.7084 234.318C99.4369 234.305 99.1669 234.365 98.926 234.49C98.3998 234.666 97.9588 235.032 97.6897 235.515C97.624 235.631 97.5957 235.764 97.6085 235.896C97.6213 236.028 97.6747 236.153 97.7613 236.253C97.848 236.354 97.9638 236.426 98.0929 236.459C98.222 236.492 98.3582 236.485 98.483 236.438Z" fill="#263238"/>
<path d="M101.615 239.217C101.615 239.217 101.532 239.299 101.543 239.34C101.831 240.478 101.965 241.831 101.007 242.415C101.007 242.415 101.007 242.497 101.007 242.477C102.264 242.046 102.068 240.252 101.615 239.217Z" fill="#263238"/>
<path d="M100.327 238.243C98.4416 238.499 99.0907 242.231 100.842 241.995C102.594 241.759 101.903 238.027 100.327 238.243Z" fill="#263238"/>
<path d="M99.6263 238.571C99.3378 238.837 99.0802 239.268 98.6887 239.37C98.2972 239.473 97.8233 239.165 97.4627 238.837C97.4627 238.837 97.4009 238.837 97.4009 238.899C97.5245 239.616 97.9263 240.293 98.7093 240.273C99.4923 240.252 99.8323 239.524 99.8838 238.776C99.8941 238.632 99.7396 238.458 99.6263 238.571Z" fill="#263238"/>
<path d="M108.384 237.607C108.384 237.607 108.476 237.607 108.487 237.699C108.641 238.858 109.023 240.17 110.135 240.375V240.447C108.827 240.478 108.343 238.735 108.384 237.607Z" fill="#263238"/>
<path d="M109.218 236.233C111.063 235.782 111.835 239.493 110.125 239.904C108.415 240.314 107.663 236.612 109.218 236.233Z" fill="#263238"/>
<path d="M110.042 236.315C110.382 236.448 110.743 236.746 111.072 236.694C111.402 236.643 111.701 236.172 111.886 235.741C111.886 235.69 111.886 235.741 111.948 235.741C112.113 236.438 112.03 237.228 111.381 237.504C110.732 237.781 110.197 237.248 109.877 236.571C109.846 236.479 109.929 236.254 110.042 236.315Z" fill="#263238"/>
<path d="M103.747 249.049C104.057 249.295 104.386 249.633 104.778 249.613C105.209 249.546 105.623 249.393 105.993 249.162C105.993 249.162 106.076 249.162 106.055 249.162C105.918 249.412 105.715 249.62 105.468 249.764C105.222 249.908 104.94 249.984 104.654 249.982C104.412 249.945 104.186 249.839 104.003 249.677C103.82 249.515 103.689 249.304 103.624 249.069C103.562 249.059 103.644 249.018 103.747 249.049Z" fill="#263238"/>
<path d="M107.755 244.015C107.755 244.015 108.322 245.696 108.476 246.506C108.476 246.578 108.301 246.66 108.023 246.722C107.346 246.98 106.61 247.047 105.897 246.915C105.184 246.783 104.522 246.457 103.984 245.973C103.97 245.96 103.961 245.942 103.959 245.922C103.957 245.903 103.962 245.883 103.973 245.867C103.984 245.851 104.001 245.839 104.02 245.834C104.039 245.829 104.059 245.831 104.077 245.84C105.253 246.356 106.564 246.482 107.817 246.199C107.817 245.963 106.787 243.349 106.879 243.318C107.525 243.256 108.177 243.281 108.816 243.39C107.786 239.863 106.117 236.53 105.107 232.993C105.098 232.967 105.098 232.937 105.11 232.911C105.121 232.885 105.141 232.864 105.167 232.852C105.193 232.841 105.223 232.839 105.25 232.848C105.277 232.857 105.3 232.876 105.313 232.901C107.17 236.42 108.668 240.116 109.785 243.933C109.929 244.364 108.116 244.066 107.755 244.015Z" fill="#263238"/>
<path d="M84.0899 245.819C85.1361 245.157 85.993 244.237 86.5778 243.148C87.1625 242.06 87.4553 240.84 87.428 239.606C90.3029 237.964 92.683 235.585 94.3204 232.716C94.2483 233.085 93.692 235.731 93.3726 237.074C104.098 233.834 106.57 225.119 106.57 225.119C108.876 226.808 110.77 228.991 112.113 231.507C112.113 231.507 111.443 224.812 107.498 220.71C106.205 219.273 104.551 218.205 102.706 217.616C100.86 217.026 98.8905 216.937 96.9991 217.358C94.2226 217.001 91.4009 217.397 88.8315 218.503C86.2621 219.609 84.0403 221.385 82.4002 223.643C76.1362 232.153 84.0899 245.819 84.0899 245.819Z" fill="#263238"/>
<path d="M101.501 234.357C99.8459 235.509 98.0261 236.408 96.1025 237.023C99.0881 235.846 101.685 233.865 103.603 231.302C104.415 230.207 105.087 229.015 105.602 227.754C106.233 226.399 106.584 224.931 106.632 223.438C106.632 223.325 106.797 223.325 106.797 223.438C106.915 224.915 106.782 226.402 106.405 227.836C105.962 229.242 105.264 230.556 104.345 231.712C103.524 232.729 102.567 233.629 101.501 234.388" fill="#263238"/>
<path d="M86.9235 245.471C86.9235 245.471 82.277 240.816 80.0825 242.549C77.8881 244.281 82.0401 251.489 85.0587 252.053C85.4413 252.152 85.8399 252.172 86.2306 252.113C86.6213 252.054 86.9959 251.917 87.3319 251.71C87.6679 251.503 87.9584 251.231 88.1856 250.909C88.4129 250.587 88.5724 250.223 88.6544 249.838L86.9235 245.471Z" fill="#D3766A"/>
<path d="M81.3184 244.589V244.661C83.451 245.122 84.8213 246.783 85.8824 248.557C85.7306 248.379 85.5419 248.237 85.3293 248.139C85.1167 248.042 84.8854 247.991 84.6513 247.991C84.4171 247.991 84.1858 248.042 83.9732 248.139C83.7607 248.237 83.5719 248.379 83.4201 248.557C83.4201 248.557 83.4201 248.67 83.4922 248.649C83.8227 248.479 84.1977 248.415 84.5663 248.464C84.9349 248.514 85.2793 248.675 85.5527 248.926C86.007 249.354 86.4145 249.828 86.7685 250.341C86.8921 250.505 87.1909 250.341 87.0879 250.156C86.6757 247.562 84.0898 244.374 81.3184 244.589Z" fill="#263238"/>
<path d="M73.7978 274.312C64.5254 288.768 53.9136 311.847 53.6251 328.169C53.4809 336.136 67.3277 343.374 72.376 340.965C84.2241 335.274 100.729 322.212 107.22 313.6C109.517 310.524 84.9865 290.111 83.1835 293.761C81.3805 297.411 80.2678 299.544 78.4649 300.938C77.5788 301.625 82.792 290.89 85.4192 275.86C88.9942 255.344 77.1564 269.072 73.7978 274.312Z" fill="#D3766A"/>
<path d="M102.584 258.697C102.584 258.697 98.7407 253.96 102.202 251.622C105.664 249.285 108.683 254.555 108.683 254.555L102.584 258.697Z" fill="#FF91B4"/>
<path d="M108.535 254.392L102.441 258.53L126.681 293.878L132.774 289.74L108.535 254.392Z" fill="#FFC727"/>
<path opacity="0.2" d="M108.535 254.392L102.441 258.53L126.681 293.878L132.774 289.74L108.535 254.392Z" fill="black"/>
<path d="M108.919 253.843L101.804 258.674L102.768 260.08L109.883 255.249L108.919 253.843Z" fill="#37474F"/>
<path d="M109.972 255.398L102.857 260.229L103.821 261.635L110.936 256.804L109.972 255.398Z" fill="#37474F"/>
<path d="M132.791 289.701L133.491 295.627L133.728 297.575L131.977 296.652L126.691 293.843V292.551L127.897 293.023V291.721L129.113 292.192V290.901L130.339 291.362V290.07L131.554 290.532V289.24L132.791 289.701Z" fill="white"/>
<path d="M133.491 295.627L133.728 297.575L131.977 296.652L133.491 295.627Z" fill="#37474F"/>
<path d="M120.139 264.387C122.334 267.401 114.411 272.148 114.411 272.148C116.019 272.082 117.599 272.583 118.872 273.563C121.046 275.388 119.119 279.571 119.119 279.571C120.803 279.849 122.362 280.628 123.59 281.806C125.486 283.765 124.147 288.255 124.147 288.255C125.552 289.364 126.506 290.941 126.836 292.695C127.536 297.401 121.602 301.738 118.46 305.152C115.091 308.802 108.487 312.277 105.932 314.933L82.4004 295.648C82.4004 295.648 89.9316 276.618 96.5357 271.492C100.214 268.621 116.791 259.784 120.139 264.387Z" fill="#D3766A"/>
<path d="M114.287 272.107C109.486 273.789 105.107 276.598 100.894 279.366C100.801 279.428 100.894 279.571 100.997 279.51C105.118 276.711 110.135 274.947 114.39 272.333C114.42 272.319 114.444 272.294 114.455 272.264C114.467 272.233 114.466 272.199 114.452 272.169C114.438 272.139 114.413 272.116 114.382 272.104C114.351 272.093 114.317 272.094 114.287 272.107Z" fill="#263238"/>
<path d="M118.789 279.336C117.737 279.825 116.754 280.449 115.863 281.191C114.833 281.909 113.895 282.657 112.937 283.416C111 284.92 109.108 286.482 107.26 288.102C107.178 288.173 107.26 288.307 107.353 288.245C109.28 286.738 111.227 285.262 113.226 283.836C114.256 283.119 115.214 282.422 116.224 281.714C117.213 281.133 118.136 280.445 118.975 279.664C119.018 279.639 119.05 279.598 119.064 279.55C119.078 279.502 119.071 279.451 119.047 279.407C119.022 279.364 118.981 279.332 118.933 279.318C118.885 279.305 118.833 279.311 118.789 279.336Z" fill="#263238"/>
<path d="M124.065 288.317C123.121 288.772 122.26 289.382 121.52 290.121C120.654 290.829 119.789 291.536 118.913 292.233C117.172 293.628 115.421 295.022 113.628 296.335C113.535 296.396 113.628 296.54 113.731 296.478C115.555 295.125 117.409 293.802 119.222 292.439C120.119 291.772 121.005 291.095 121.891 290.388C122.757 289.841 123.521 289.147 124.147 288.337C124.147 288.337 124.116 288.307 124.065 288.317Z" fill="#263238"/>
<path d="M95.2476 272.641C97.0586 270.419 99.5113 268.805 102.274 268.017C102.387 268.017 102.387 268.017 102.274 268.099C99.7611 269.328 97.4141 270.867 95.2888 272.682L95.2476 272.641Z" fill="#263238"/>
<path d="M108.384 317.896L82.8022 292.828L78.8975 299.872C78.8975 299.872 84.7288 284.195 86.2124 275.645C87.6959 267.094 87.4487 257.067 76.5485 269.883C65.8749 282.432 51.5748 318.634 52.3063 328.015C53.0378 337.397 65.0301 343.077 71.0674 342C77.1048 340.924 108.384 317.896 108.384 317.896Z" fill="#F9EB02"/>
<path d="M101.687 320.603C98.1119 317.23 83.9973 302.896 81.1537 299.595C80.958 299.359 81.061 299.185 81.298 299.4C92.2497 309.243 98.4828 316.963 101.811 320.449C101.914 320.541 101.8 320.685 101.687 320.603Z" fill="#263238"/>
<path d="M60.5997 325.268C61.9802 322.889 63.5874 320.603 65.1225 318.306C66.6576 316.01 68.2133 313.682 69.8206 311.427C71.4278 309.171 73.1792 306.967 74.9101 304.762C75.7652 303.655 77.4445 301.502 78.31 300.405C79.1754 299.308 79.2578 299.564 78.4439 300.753C77.63 301.943 76.064 304.096 75.281 305.244C73.7459 307.5 72.1902 309.776 70.6551 312.001C69.12 314.226 67.4097 316.43 65.7716 318.634C64.1335 320.839 62.5366 323.176 60.7748 325.35C60.7027 325.442 60.5482 325.37 60.5997 325.268Z" fill="#263238"/>
<path d="M81.0198 292.09C81.9058 289.496 82.9773 286.964 83.6675 284.277C83.6675 284.175 83.8633 284.216 83.8324 284.277C83.3173 286.031 82.9155 287.804 82.4518 289.568C82.5002 289.498 82.5449 289.426 82.5858 289.352C82.9876 288.676 83.3791 287.979 83.7603 287.302C83.8118 287.21 83.956 287.302 83.9045 287.394C83.5542 288.102 83.2039 288.819 82.8742 289.537C82.6404 290.129 82.347 290.696 81.9985 291.229C81.8852 291.608 81.7822 291.987 81.6585 292.367C80.8623 294.972 79.8811 297.518 78.7223 299.984C78.702 300.012 78.6729 300.033 78.6396 300.042C78.6063 300.052 78.5707 300.05 78.5386 300.037C78.5065 300.024 78.4798 300.001 78.4626 299.971C78.4455 299.941 78.439 299.906 78.4441 299.872C79.2065 297.268 80.1234 294.663 81.0198 292.09Z" fill="#263238"/>
<path d="M82.6065 292.685C82.6889 292.551 83.3174 293.207 83.6368 293.556C83.6883 293.607 83.6368 293.638 83.5441 293.556C83.4513 293.474 83.101 293.31 82.9053 293.146C82.3077 294.335 78.9903 299.944 78.7842 300.19C78.5782 300.436 78.5782 300.19 78.6297 300.046C78.7739 299.462 81.8647 293.905 82.6065 292.685Z" fill="#263238"/>
<path d="M79.4643 337.633C86.841 332.27 94.362 327.082 102.058 322.171C104.119 320.818 106.179 319.372 108.24 317.968C108.013 317.824 105.932 315.63 105.87 315.548C105.808 315.466 105.87 315.446 105.87 315.487C106.107 315.681 108.765 317.824 108.961 318.07C109.157 318.316 101.244 323.535 97.5455 326.139C93.8468 328.743 89.9627 331.214 86.1198 333.675C83.9357 335.069 81.7412 336.443 79.5158 337.776C79.454 337.827 79.3819 337.694 79.4643 337.633Z" fill="#263238"/>
<path d="M163.39 326.621L124.806 329.943L138.55 279.13L177.133 275.809L163.39 326.621Z" fill="#EBEBEB"/>
<path d="M166.037 326.396L127.443 329.707L141.187 278.895L179.771 275.583L166.037 326.396Z" fill="#F9EB02"/>
<path d="M145.288 278.546C145.097 279.43 144.564 280.204 143.804 280.699C143.454 280.925 143.32 280.453 143.66 280.238C144.155 279.919 144.521 279.436 144.69 278.874C144.721 278.784 144.745 278.691 144.763 278.597C144.846 278.288 144.846 277.963 144.763 277.654C144.722 277.525 144.638 277.413 144.526 277.336H144.474C144.45 277.342 144.426 277.342 144.402 277.336C144.315 277.307 144.221 277.307 144.134 277.336C143.971 277.414 143.827 277.526 143.712 277.664C143.576 277.83 143.461 278.013 143.372 278.208C143.372 278.3 143.279 278.403 143.227 278.505V278.567V278.669C143.224 278.693 143.224 278.717 143.227 278.741L142.681 278.792C142.781 278.432 142.93 278.087 143.124 277.767C143.269 277.505 143.469 277.277 143.711 277.1C143.953 276.923 144.231 276.801 144.526 276.742C144.742 276.718 144.959 276.778 145.132 276.91C145.305 277.042 145.42 277.235 145.453 277.449C145.49 277.823 145.434 278.2 145.288 278.546Z" fill="#455A64"/>
<path d="M148.307 278.29C148.116 279.174 147.583 279.947 146.823 280.443C146.473 280.668 146.339 280.197 146.689 279.981C147.178 279.657 147.542 279.176 147.719 278.618C147.719 278.526 147.771 278.423 147.781 278.341C147.864 278.032 147.864 277.707 147.781 277.398C147.738 277.266 147.651 277.154 147.534 277.08H147.451C147.365 277.051 147.271 277.051 147.184 277.08C147.022 277.151 146.881 277.26 146.771 277.398C146.577 277.661 146.414 277.947 146.287 278.249V278.31C146.285 278.344 146.285 278.379 146.287 278.413C146.283 278.436 146.283 278.461 146.287 278.485H145.741C145.843 278.125 145.992 277.78 146.184 277.459C146.329 277.197 146.529 276.969 146.771 276.792C147.013 276.615 147.291 276.493 147.585 276.434C147.802 276.41 148.019 276.471 148.192 276.602C148.364 276.734 148.479 276.927 148.513 277.141C148.546 277.536 148.475 277.932 148.307 278.29Z" fill="#455A64"/>
<path d="M151.325 278.033C151.139 278.914 150.609 279.685 149.852 280.176C149.502 280.412 149.358 279.94 149.708 279.715C150.194 279.392 150.557 278.915 150.738 278.362C150.764 278.267 150.784 278.171 150.8 278.074C150.883 277.765 150.883 277.44 150.8 277.131C150.751 277.003 150.665 276.892 150.553 276.813H150.481C150.385 276.806 150.289 276.824 150.202 276.865C150.04 276.934 149.898 277.043 149.79 277.182C149.647 277.343 149.532 277.527 149.45 277.726C149.392 277.82 149.344 277.919 149.306 278.023V278.095C149.3 278.129 149.3 278.164 149.306 278.197C149.306 278.197 149.306 278.197 149.306 278.259L148.76 278.31C148.861 277.951 149.01 277.606 149.203 277.285C149.351 277.025 149.552 276.8 149.793 276.623C150.035 276.446 150.311 276.322 150.604 276.26C150.822 276.239 151.039 276.302 151.211 276.435C151.384 276.568 151.498 276.763 151.531 276.977C151.555 277.341 151.484 277.705 151.325 278.033Z" fill="#455A64"/>
<path d="M154.344 277.767C154.254 278.205 154.077 278.621 153.824 278.99C153.571 279.36 153.247 279.676 152.871 279.92C152.52 280.146 152.376 279.674 152.726 279.459C153.219 279.137 153.583 278.655 153.757 278.095C153.783 278.004 153.804 277.912 153.819 277.818C153.902 277.509 153.902 277.184 153.819 276.875C153.774 276.745 153.687 276.633 153.571 276.557H153.52H153.448C153.36 276.533 153.267 276.533 153.18 276.557C153.015 276.632 152.87 276.744 152.757 276.885C152.618 277.049 152.503 277.232 152.417 277.429C152.363 277.525 152.315 277.624 152.273 277.726V277.787V277.89C152.273 277.89 152.273 277.89 152.273 277.962L151.717 278.013C151.817 277.653 151.966 277.308 152.16 276.988C152.307 276.728 152.509 276.502 152.75 276.326C152.992 276.149 153.268 276.025 153.561 275.962C153.779 275.939 153.997 275.999 154.171 276.13C154.346 276.262 154.463 276.455 154.499 276.67C154.539 277.043 154.486 277.42 154.344 277.767Z" fill="#455A64"/>
<path d="M157.373 277.511C157.183 278.395 156.649 279.168 155.889 279.664C155.539 279.889 155.395 279.418 155.745 279.202C156.237 278.881 156.602 278.398 156.775 277.839C156.775 277.746 156.827 277.644 156.837 277.562C156.92 277.253 156.92 276.928 156.837 276.619C156.798 276.486 156.71 276.372 156.59 276.301H156.518C156.431 276.271 156.337 276.271 156.25 276.301C156.086 276.372 155.941 276.481 155.828 276.619C155.691 276.788 155.577 276.974 155.488 277.172C155.436 277.265 155.395 277.367 155.343 277.47V277.531C155.335 277.565 155.335 277.6 155.343 277.634C155.343 277.634 155.343 277.634 155.343 277.705H154.797C154.892 277.345 155.038 277 155.23 276.68C155.374 276.418 155.575 276.19 155.817 276.013C156.059 275.836 156.337 275.714 156.631 275.655C156.849 275.628 157.069 275.687 157.244 275.819C157.419 275.951 157.536 276.146 157.569 276.362C157.606 276.755 157.538 277.151 157.373 277.511Z" fill="#455A64"/>
<path d="M160.412 277.254C160.221 278.135 159.688 278.906 158.928 279.397C158.578 279.633 158.434 279.161 158.784 278.936C159.274 278.616 159.638 278.138 159.814 277.582C159.843 277.488 159.867 277.392 159.887 277.295C159.97 276.99 159.97 276.668 159.887 276.362C159.848 276.229 159.765 276.113 159.65 276.034H159.382C159.289 276.026 159.197 276.044 159.114 276.085C158.948 276.153 158.802 276.262 158.691 276.403C158.555 276.569 158.441 276.752 158.351 276.947C158.351 277.039 158.259 277.141 158.207 277.244V277.316C158.203 277.35 158.203 277.384 158.207 277.418C158.207 277.418 158.207 277.418 158.207 277.48H157.661C157.759 277.12 157.904 276.776 158.094 276.455C158.242 276.196 158.444 275.971 158.685 275.794C158.927 275.617 159.202 275.493 159.495 275.429C159.714 275.408 159.932 275.471 160.106 275.604C160.28 275.737 160.397 275.931 160.433 276.147C160.518 276.512 160.511 276.893 160.412 277.254Z" fill="#455A64"/>
<path d="M163.41 276.998C163.216 277.878 162.684 278.647 161.927 279.141C161.576 279.366 161.442 278.895 161.782 278.679C162.278 278.361 162.643 277.878 162.813 277.316C162.843 277.225 162.867 277.133 162.885 277.039C162.968 276.73 162.968 276.405 162.885 276.096C162.844 275.966 162.76 275.854 162.648 275.778H162.596H162.473C162.385 275.753 162.292 275.753 162.205 275.778C162.04 275.853 161.895 275.965 161.782 276.106C161.646 276.272 161.532 276.454 161.442 276.649C161.391 276.742 161.35 276.844 161.298 276.947V277.018C161.294 277.049 161.294 277.08 161.298 277.111C161.295 277.134 161.295 277.159 161.298 277.182H160.752C160.847 276.82 160.996 276.475 161.195 276.157C161.34 275.895 161.54 275.667 161.782 275.49C162.024 275.313 162.302 275.191 162.596 275.132C162.813 275.108 163.03 275.169 163.203 275.3C163.375 275.432 163.49 275.625 163.524 275.839C163.586 276.229 163.547 276.628 163.41 276.998Z" fill="#455A64"/>
<path d="M166.429 276.731C166.239 277.615 165.706 278.389 164.946 278.884C164.595 279.11 164.461 278.638 164.812 278.423C165.301 278.098 165.664 277.617 165.842 277.059C165.842 276.967 165.893 276.865 165.904 276.783C165.987 276.474 165.987 276.148 165.904 275.839C165.861 275.708 165.773 275.596 165.656 275.522H165.574C165.487 275.493 165.393 275.493 165.306 275.522C165.145 275.593 165.004 275.702 164.894 275.839C164.751 276.004 164.636 276.191 164.554 276.393C164.496 276.487 164.447 276.587 164.41 276.69V276.752V276.854C164.405 276.878 164.405 276.902 164.41 276.926H163.864C163.967 276.567 164.116 276.223 164.307 275.901C164.451 275.639 164.651 275.411 164.893 275.234C165.135 275.057 165.413 274.935 165.708 274.876C165.924 274.852 166.142 274.912 166.314 275.044C166.487 275.176 166.602 275.369 166.635 275.583C166.669 275.977 166.598 276.373 166.429 276.731Z" fill="#455A64"/>
<path d="M169.448 276.475C169.262 277.355 168.732 278.126 167.975 278.618C167.624 278.854 167.48 278.382 167.83 278.167C168.315 277.837 168.677 277.358 168.861 276.803C168.886 276.709 168.907 276.613 168.922 276.516C169.006 276.211 169.006 275.888 168.922 275.583C168.877 275.45 168.79 275.336 168.675 275.255H168.562C168.466 275.248 168.37 275.266 168.284 275.306C168.121 275.375 167.979 275.485 167.872 275.624C167.73 275.786 167.616 275.97 167.532 276.167C167.473 276.261 167.425 276.361 167.387 276.465V276.537C167.383 276.571 167.383 276.605 167.387 276.639C167.387 276.639 167.387 276.639 167.387 276.701L166.841 276.752C166.943 276.392 167.092 276.047 167.284 275.727C167.432 275.467 167.633 275.241 167.875 275.065C168.116 274.888 168.392 274.764 168.685 274.701C168.903 274.68 169.12 274.743 169.293 274.877C169.465 275.01 169.58 275.204 169.613 275.419C169.644 275.779 169.587 276.141 169.448 276.475Z" fill="#455A64"/>
<path d="M172.466 276.219C172.28 277.099 171.75 277.87 170.993 278.362C170.642 278.587 170.498 278.115 170.849 277.9C171.338 277.575 171.701 277.094 171.879 276.537C171.905 276.446 171.926 276.353 171.941 276.26C172.024 275.951 172.024 275.625 171.941 275.317C171.896 275.186 171.809 275.075 171.693 274.999H171.621C171.534 274.974 171.441 274.974 171.353 274.999C171.189 275.074 171.044 275.186 170.931 275.327C170.791 275.49 170.677 275.673 170.591 275.87C170.537 275.966 170.489 276.065 170.447 276.167V276.239C170.441 276.273 170.441 276.308 170.447 276.342C170.447 276.342 170.447 276.342 170.447 276.403L169.89 276.455C169.99 276.094 170.139 275.749 170.333 275.429C170.481 275.17 170.682 274.944 170.924 274.767C171.165 274.591 171.442 274.467 171.735 274.404C171.951 274.38 172.168 274.441 172.341 274.572C172.514 274.704 172.629 274.897 172.662 275.111C172.695 275.491 172.628 275.873 172.466 276.219Z" fill="#455A64"/>
<path d="M175.495 275.952C175.305 276.836 174.772 277.61 174.012 278.105C173.661 278.331 173.517 277.859 173.867 277.644C174.359 277.322 174.724 276.84 174.898 276.28C174.923 276.189 174.944 276.097 174.959 276.003C175.042 275.694 175.042 275.369 174.959 275.06C174.92 274.927 174.832 274.814 174.712 274.742H174.64C174.553 274.713 174.459 274.713 174.372 274.742C174.21 274.817 174.066 274.925 173.95 275.06C173.813 275.23 173.699 275.416 173.61 275.614C173.61 275.706 173.517 275.809 173.465 275.911V275.973C173.458 276.006 173.458 276.041 173.465 276.075C173.465 276.075 173.465 276.126 173.465 276.147H172.919C173.012 275.786 173.157 275.44 173.352 275.122C173.496 274.859 173.697 274.632 173.939 274.455C174.181 274.278 174.459 274.155 174.753 274.096C174.971 274.07 175.191 274.129 175.366 274.261C175.541 274.393 175.658 274.588 175.691 274.804C175.728 275.197 175.66 275.593 175.495 275.952Z" fill="#455A64"/>
<path d="M178.514 275.696C178.323 276.577 177.79 277.347 177.031 277.839C176.68 278.074 176.536 277.603 176.886 277.387C177.374 277.062 177.737 276.581 177.917 276.024C177.917 275.932 177.968 275.829 177.989 275.747C178.072 275.438 178.072 275.113 177.989 274.804C177.951 274.667 177.862 274.55 177.741 274.476H177.69H177.618C177.525 274.467 177.433 274.485 177.35 274.527C177.184 274.594 177.038 274.704 176.927 274.845C176.794 275.012 176.68 275.195 176.587 275.388C176.587 275.48 176.495 275.583 176.443 275.686V275.757C176.439 275.791 176.439 275.826 176.443 275.86C176.443 275.86 176.443 275.86 176.443 275.921L175.897 275.973C175.995 275.613 176.14 275.268 176.33 274.947C176.478 274.688 176.68 274.463 176.921 274.287C177.163 274.11 177.439 273.986 177.731 273.922C177.95 273.901 178.168 273.963 178.342 274.097C178.516 274.23 178.633 274.424 178.669 274.64C178.703 274.999 178.65 275.361 178.514 275.696Z" fill="#455A64"/>
<path d="M178.473 287.784C180.451 291.977 185.447 297.196 185.839 300.62C185.967 301.46 185.82 302.319 185.419 303.069C185.018 303.818 184.385 304.42 183.614 304.783C183.614 304.783 187.034 306.505 186.88 309.663C186.797 311.293 184.118 312.595 184.118 312.595C184.118 312.595 186.797 314.092 186.478 316.891C186.23 319.126 183.583 320.1 183.583 320.1C183.583 320.1 185.478 322.725 184.489 324.919C182.491 329.369 163.091 329.277 160.134 322.151C158.753 318.829 163.492 319.075 163.492 319.075C163.492 319.075 156.785 317.025 156.703 313.057C156.621 309.089 162.751 309.817 162.751 309.817C162.751 309.817 156.26 307.766 156.569 303.665C156.909 299.359 162.915 301.143 162.915 301.143C162.915 301.143 158.619 298.211 159.608 295.104C161.226 289.978 169.365 296.478 173.63 295.494L176.02 288.512L178.473 287.784Z" fill="#D3766A"/>
<path d="M182.326 293.884C180.811 289.783 185.973 284.657 185.087 280.556C183.892 274.927 177.504 280.402 176.052 288.563V295.094L182.326 293.884Z" fill="#D3766A"/>
<path d="M183.181 320.316C183.243 320.316 183.263 320.398 183.181 320.408C176.549 322.006 169.585 321.559 163.214 319.126C163.008 319.044 163.06 318.685 163.297 318.726C169.812 320.214 176.511 320.749 183.181 320.316Z" fill="#263238"/>
<path d="M184.211 312.636C184.283 312.636 184.294 312.749 184.211 312.77C177.617 314.297 169.2 313.744 162.514 310.022C162.277 309.889 162.205 309.55 162.514 309.673C167.129 311.816 177.927 313.128 184.211 312.636Z" fill="#263238"/>
<path d="M162.545 300.733C169.097 304.055 176.062 304.957 183.346 304.834C183.449 304.834 183.439 304.967 183.346 304.988C179.802 306.013 175.104 305.583 171.56 304.988C168.213 304.466 165.062 303.08 162.421 300.969C162.328 300.877 162.411 300.661 162.545 300.733Z" fill="#263238"/>
<path d="M327.099 408.807C326.203 411.206 282.354 465.453 279.367 466.468C278.244 466.858 269.929 460.963 260.09 453.56C257.968 451.961 255.784 450.289 253.569 448.588C239.217 437.556 224.289 425.488 224.289 425.488L253.517 389.122L281.984 413.185L288.248 418.465C288.248 418.465 314.365 405.136 317.765 404.409C321.165 403.681 327.995 406.398 327.099 408.807Z" fill="#D3766A"/>
<path d="M327.099 408.807C326.203 411.206 282.355 465.453 279.367 466.468C277.986 466.94 265.973 458.143 253.61 448.588L281.984 413.185L288.248 418.465C288.248 418.465 314.365 405.136 317.765 404.409C321.165 403.681 327.995 406.398 327.099 408.807Z" fill="white"/>
<path d="M327.099 408.807C326.203 411.206 282.354 465.453 279.367 466.468C278.244 466.858 269.929 460.963 260.09 453.56L288.258 418.506C288.258 418.506 314.375 405.178 317.775 404.45C321.175 403.722 327.995 406.398 327.099 408.807Z" fill="#F9EB02"/>
<path d="M324.286 407.833C316.714 416.753 287.011 453.406 280.201 462.788C280.201 462.87 280.201 462.911 280.263 462.839C287.959 454.165 317.353 417.265 324.441 407.956C324.585 407.761 324.451 407.648 324.286 407.833Z" fill="#263238"/>
<path d="M312.995 406.367C312.157 407.35 311.532 408.495 311.16 409.73C310.788 410.965 310.676 412.264 310.831 413.544C311.1 415.864 312.259 417.991 314.066 419.48C314.118 419.48 314.2 419.419 314.149 419.367C312.592 417.609 311.65 415.395 311.464 413.058C311.279 410.722 311.859 408.388 313.119 406.408C313.117 406.394 313.111 406.382 313.103 406.371C313.094 406.361 313.083 406.353 313.07 406.348C313.057 406.344 313.043 406.344 313.03 406.347C313.016 406.35 313.004 406.357 312.995 406.367Z" fill="#263238"/>
<path d="M292.019 415.707C289.031 419.306 286.867 424.555 288.073 429.21C288.073 429.394 288.371 429.333 288.402 429.21C289.299 424.685 290.681 420.268 292.523 416.035C292.567 415.969 292.582 415.887 292.566 415.81C292.55 415.732 292.503 415.663 292.436 415.62C292.369 415.576 292.287 415.561 292.209 415.578C292.131 415.594 292.062 415.64 292.019 415.707Z" fill="#263238"/>
<path d="M295.377 413.78C292.39 417.378 290.226 422.628 291.432 427.282C291.432 427.467 291.73 427.395 291.761 427.282C292.658 422.757 294.04 418.34 295.882 414.108C295.926 414.041 295.941 413.96 295.925 413.882C295.908 413.804 295.862 413.736 295.795 413.692C295.728 413.649 295.646 413.634 295.568 413.65C295.49 413.666 295.421 413.713 295.377 413.78Z" fill="#263238"/>
<path d="M298.767 411.852C295.769 415.451 293.615 420.7 294.81 425.355C294.81 425.539 295.109 425.468 295.14 425.355C296.038 420.833 297.42 416.42 299.261 412.19C299.283 412.158 299.299 412.122 299.307 412.083C299.316 412.045 299.316 412.005 299.309 411.967C299.302 411.928 299.287 411.891 299.266 411.859C299.244 411.826 299.216 411.797 299.184 411.775C299.151 411.753 299.115 411.737 299.076 411.729C299.038 411.721 298.998 411.72 298.959 411.728C298.92 411.735 298.884 411.749 298.85 411.771C298.817 411.792 298.789 411.82 298.767 411.852Z" fill="#263238"/>
<path d="M302.135 409.925C299.137 413.523 296.984 418.773 298.179 423.427C298.179 423.612 298.488 423.54 298.519 423.427C299.416 418.905 300.797 414.492 302.64 410.263C302.685 410.196 302.702 410.115 302.686 410.036C302.671 409.957 302.625 409.887 302.558 409.842C302.491 409.798 302.409 409.781 302.329 409.796C302.25 409.812 302.18 409.858 302.135 409.925Z" fill="#263238"/>
<path d="M273.402 453.529C270.105 457.63 276.492 462.757 279.789 458.656C283.086 454.555 276.688 449.428 273.402 453.529Z" fill="white"/>
<path d="M285.435 403.957C282.416 404.573 282.035 408.059 282.715 410.509C283.95 414.628 286.253 418.352 289.391 421.305C289.403 421.32 289.418 421.332 289.435 421.34C289.452 421.349 289.47 421.353 289.489 421.353C289.508 421.353 289.527 421.349 289.544 421.34C289.561 421.332 289.576 421.32 289.587 421.305C289.667 421.347 289.757 421.369 289.848 421.37C289.938 421.37 290.028 421.349 290.109 421.307C290.189 421.266 290.259 421.206 290.312 421.133C290.364 421.059 290.399 420.974 290.411 420.885C290.71 416.855 291.524 412.58 290.566 408.581C290.009 406.203 288.299 403.383 285.435 403.957ZM289.556 414.651C289.453 416.64 289.257 418.609 289.237 420.598C287.877 418.532 286.622 416.401 285.476 414.21C284.939 413.138 284.474 412.032 284.085 410.899C283.519 409.145 283.354 403.127 287.619 405.946C290.03 407.505 289.721 412.283 289.608 414.651H289.556Z" fill="#263238"/>
<path d="M283.436 431.424C286.527 428.656 288.227 424.658 290.256 421.172C290.295 421.091 290.313 421.003 290.31 420.914C290.307 420.825 290.283 420.737 290.24 420.659C290.197 420.581 290.136 420.515 290.061 420.465C289.987 420.415 289.902 420.383 289.813 420.372C289.813 420.29 289.762 420.218 289.669 420.239C285.403 420.924 281.395 422.717 278.048 425.437C276.132 427.057 274.452 430.184 276.616 432.378C278.779 434.572 281.654 433.055 283.436 431.424ZM279.583 431.958C274.432 431.906 277.986 427.026 279.449 425.888C280.41 425.168 281.418 424.514 282.468 423.93C284.651 422.754 286.893 421.689 289.185 420.741C288.083 422.402 287.124 424.135 286.094 425.867C284.848 427.867 282.406 431.988 279.583 431.958Z" fill="#263238"/>
<path d="M280.469 407.741L250.045 448.577L147.431 377.7L137.53 370.872C137.53 370.872 134.728 372.748 130.514 375.065C124.652 378.285 116.09 382.365 108.466 383.483C95.732 385.359 76.5278 385.154 65.7821 370.872C56.7364 358.835 59.6005 343.138 59.6005 343.138L73.5915 337.161C73.5915 337.161 106.704 309.714 128.196 308.884C137.303 308.525 150.563 315.394 162.844 322.571C175.124 329.748 280.469 407.741 280.469 407.741Z" fill="#37474F"/>
<path d="M137.53 370.872C137.53 370.872 134.728 372.748 130.514 375.065C123.055 366.186 107.261 350.049 106.818 349.433L137.53 370.872Z" fill="#263238"/>
<path d="M85.7079 327.974C83.7298 329.338 81.8135 330.794 79.856 332.199C77.8985 333.603 75.9616 334.875 74.1277 336.382C72.2938 337.889 70.5114 339.55 68.7703 341.2C67.9255 342 67.0807 342.8 66.2667 343.63C65.4077 344.426 64.612 345.286 63.8868 346.204C63.825 346.286 63.9486 346.388 64.0311 346.337C64.9589 345.68 65.8434 344.964 66.6788 344.194L69.4503 341.846C71.2326 340.339 73.0459 338.883 74.818 337.366C76.59 335.849 78.2178 334.229 79.9693 332.711C81.7207 331.194 83.8122 329.574 85.7594 328.036C85.78 328.005 85.7491 327.944 85.7079 327.974Z" fill="#263238"/>
<path d="M273.33 406.275C271.352 408.397 269.528 410.673 267.684 412.908C265.84 415.143 264.006 417.419 262.182 419.685C258.535 424.217 254.857 428.728 251.272 433.311C249.294 435.833 247.357 438.366 245.523 440.99C245.44 441.103 245.626 441.236 245.729 441.134C249.644 436.838 253.239 432.255 256.876 427.734C260.513 423.212 264.15 418.639 267.735 414.046C269.693 411.534 271.712 409.033 273.505 406.408C273.515 406.385 273.517 406.359 273.511 406.334C273.505 406.31 273.49 406.288 273.47 406.272C273.45 406.257 273.425 406.249 273.399 406.249C273.374 406.25 273.349 406.259 273.33 406.275Z" fill="#263238"/>
<path d="M195.441 410.724C190.29 406.726 178.72 398.903 173.424 395.15C168.129 391.398 162.895 387.666 157.548 384.036C156.016 383.004 154.474 381.979 152.922 380.961C151.376 379.935 149.769 378.992 148.255 377.936C148.172 377.874 148.09 378.018 148.172 378.08C149.563 379.105 150.872 380.181 152.293 381.207C153.715 382.232 154.89 383.185 156.198 384.149C158.763 386.036 161.349 387.891 163.946 389.757C169.179 393.52 174.465 397.252 179.802 400.892C182.831 402.942 192.165 409.094 195.256 411.042C195.369 411.134 195.596 410.868 195.441 410.724Z" fill="#263238"/>
<path d="M227.616 368.534C222.898 364.648 212.162 357.164 207.196 353.565C202.23 349.967 197.223 346.255 192.196 342.636L177.247 331.891C172.425 328.415 167.614 324.878 162.514 321.802C159.722 320.121 156.858 318.562 153.911 317.158C151.061 315.702 148.09 314.494 145.03 313.549C145.013 313.547 144.995 313.551 144.98 313.56C144.965 313.569 144.953 313.582 144.947 313.598C144.94 313.614 144.938 313.632 144.942 313.649C144.946 313.666 144.955 313.681 144.968 313.692C147.482 315.097 150.12 316.266 152.664 317.619C155.209 318.973 157.661 320.357 160.103 321.823C165.161 324.899 169.942 328.354 174.743 331.788C184.726 338.965 194.679 346.142 204.724 353.135C210.349 357.082 221.558 365.223 227.39 368.842C227.431 368.86 227.477 368.864 227.52 368.853C227.564 368.842 227.602 368.816 227.629 368.78C227.655 368.744 227.669 368.7 227.666 368.655C227.664 368.61 227.646 368.568 227.616 368.534Z" fill="#263238"/>
<path d="M428.684 320.459C418.608 334.044 408.079 349.802 405.544 366.832C405.535 366.889 405.549 366.947 405.582 366.995C405.615 367.042 405.665 367.075 405.722 367.087C405.778 367.099 405.838 367.088 405.887 367.058C405.936 367.028 405.972 366.98 405.987 366.925C407.147 362.28 408.638 357.723 410.448 353.288C417.073 351.474 423.574 349.977 427.056 343.436C430.6 336.71 430.147 327.933 429.477 320.613C429.426 320.213 428.89 320.203 428.684 320.459Z" fill="#F9EB02"/>
<path d="M410.541 353.155C415.074 343.046 420.844 332.896 428.272 324.581C428.323 324.529 428.395 324.581 428.354 324.663C423.512 330.589 419.844 337.038 416.249 343.589C419.587 340.226 423.244 337.202 426.407 333.624C426.469 333.562 426.562 333.624 426.51 333.726C423.419 337.479 419.937 341.549 415.847 344.328C414.755 346.337 413.649 348.353 412.529 350.377C412.797 350.223 413.086 350.09 413.364 349.946C413.415 349.946 413.457 349.997 413.415 350.018C413.096 350.182 412.787 350.346 412.467 350.479C411.942 351.433 411.437 352.386 410.871 353.34C410.768 353.555 410.448 353.37 410.541 353.155Z" fill="#263238"/>
<path d="M413.91 349.618C416.619 348.112 419.206 346.398 421.647 344.492C421.709 344.44 421.812 344.492 421.74 344.584C419.378 346.619 416.789 348.377 414.023 349.823C413.858 349.885 413.786 349.7 413.91 349.618Z" fill="#263238"/>
<path d="M404.38 364.3C404.38 364.349 404.399 364.396 404.434 364.43C404.469 364.465 404.516 364.484 404.565 364.484C404.614 364.484 404.662 364.465 404.696 364.43C404.731 364.396 404.751 364.349 404.751 364.3C404.751 358.692 404.751 353.022 404.833 347.424C406.276 344.522 409.377 342.913 411.53 340.596C413.08 338.894 414.431 337.023 415.558 335.018C418.148 330.228 419.732 324.965 420.215 319.547C420.813 313.549 418.525 293.751 415.981 294.438C414.662 294.797 410.397 304.598 409.274 307.838C407.439 313.174 406.094 318.665 405.256 324.242C403.195 337.468 403.37 351.023 404.38 364.3Z" fill="#F9EB02"/>
<path d="M404.339 340.103C404.648 333.009 406.255 325.842 407.759 318.962C409.377 311.539 411.273 304.557 415.116 297.944C415.177 297.821 415.363 297.944 415.301 298.057C412.746 303.202 410.766 308.61 409.398 314.185C409.655 313.785 409.964 313.405 410.232 313.026C410.335 312.882 410.582 313.026 410.479 313.17C410.139 313.772 409.739 314.339 409.284 314.861H409.233C407.914 320.162 406.966 325.586 406.142 330.989L406.327 330.784C406.327 330.732 406.441 330.784 406.41 330.845L406.08 331.378C405.678 334.126 405.297 336.864 404.916 339.581C409.83 335.408 414.023 330.476 416.393 324.407C414.075 330.702 410.418 336.289 404.792 340.114C404.703 340.838 404.6 341.566 404.483 342.298C404.483 342.451 404.226 342.41 404.226 342.298C404.226 341.652 404.226 341.006 404.287 340.349C404.271 340.331 404.258 340.31 404.252 340.286C404.245 340.262 404.244 340.237 404.249 340.213C404.254 340.189 404.265 340.166 404.281 340.147C404.296 340.128 404.316 340.113 404.339 340.103Z" fill="#263238"/>
<path d="M406.646 329.82C410.484 324.42 413.835 318.694 416.661 312.708C416.661 312.636 416.805 312.708 416.774 312.708C414.532 319.001 411.167 324.839 406.842 329.943C406.749 330.066 406.574 329.933 406.646 329.82Z" fill="#263238"/>
<path d="M411.643 311.293C413.189 308.556 414.837 305.89 416.3 303.091C416.3 303.019 416.444 303.091 416.414 303.163C415.213 306.075 413.692 308.846 411.88 311.427C411.863 311.458 411.833 311.481 411.798 311.49C411.763 311.5 411.726 311.496 411.695 311.478C411.663 311.46 411.64 311.431 411.631 311.396C411.621 311.362 411.626 311.325 411.643 311.293Z" fill="#263238"/>
<path d="M400.558 348.08C400.484 351.798 400.046 355.5 399.249 359.133C399.301 359.532 399.363 359.932 399.424 360.342C400.573 356.334 401.237 352.204 401.403 348.039C401.438 347.982 401.457 347.916 401.457 347.849C401.457 347.782 401.438 347.717 401.403 347.66C401.564 342.071 401.146 336.482 400.156 330.979C398.415 320.664 394.603 310.77 387.37 303.05C387.311 302.998 387.241 302.96 387.165 302.94C387.089 302.92 387.009 302.918 386.932 302.934C386.855 302.95 386.783 302.983 386.721 303.032C386.66 303.081 386.61 303.143 386.577 303.214C383.661 310.586 384.681 319.393 387.164 326.795C388.513 330.783 390.443 334.552 392.893 337.981C395.386 341.416 398.549 344.297 400.558 348.08Z" fill="#F9EB02"/>
<path d="M388.246 306.464C395.097 317.527 399.857 330.64 400.444 343.702C400.444 343.928 400.063 343.989 400.032 343.702C399.867 342.533 399.682 341.365 399.496 340.206C396.523 337.587 393.911 334.587 391.728 331.286C391.728 331.225 391.78 331.153 391.821 331.204C394.172 334.085 396.693 336.824 399.373 339.406C398.878 336.525 398.342 333.675 397.611 330.876C397.426 330.671 397.25 330.456 397.075 330.251C396.9 330.046 397.147 329.902 397.271 330.046L397.436 330.22C396.471 326.393 395.277 322.627 393.861 318.942C392.12 316.891 390.172 315.087 388.895 312.595C388.895 312.534 388.946 312.493 388.988 312.544C390.018 313.969 390.997 315.405 392.151 316.727C392.614 317.25 393.119 317.753 393.603 318.255C392.023 314.248 390.15 310.362 387.999 306.628C387.988 306.596 387.989 306.562 388 306.531C388.011 306.499 388.032 306.472 388.06 306.453C388.088 306.435 388.121 306.426 388.155 306.428C388.188 306.43 388.22 306.443 388.246 306.464Z" fill="#263238"/>
<path d="M389.637 320.111C391.852 323.074 394.366 325.903 396.426 328.959C396.488 329.051 396.354 329.143 396.282 329.071C393.657 326.402 391.373 323.419 389.482 320.193C389.42 320.1 389.565 320.018 389.637 320.111Z" fill="#263238"/>
<path d="M396.735 329.646L396.828 329.748C396.9 329.81 396.828 329.912 396.725 329.84L396.632 329.748C396.571 329.687 396.674 329.584 396.735 329.646Z" fill="#263238"/>
<path d="M377.521 327.728C378.332 333.9 380.826 339.733 384.733 344.594C386.349 346.499 388.346 348.049 390.595 349.146C393.129 350.397 395.746 351.833 398.415 352.858C399.66 356.019 400.588 359.296 401.186 362.639C401.268 362.362 401.351 362.065 401.433 361.778C399.754 347.373 390.389 335.059 378.407 327.154C378.312 327.097 378.204 327.068 378.093 327.07C377.983 327.072 377.875 327.105 377.783 327.165C377.69 327.225 377.617 327.309 377.57 327.409C377.524 327.509 377.507 327.619 377.521 327.728Z" fill="#F9EB02"/>
<path d="M381.662 331.983C381.58 331.901 381.662 331.758 381.786 331.819C388.365 336.694 393.614 343.13 397.055 350.541C397.137 350.746 396.869 350.91 396.756 350.715C396.199 349.751 395.622 348.798 395.045 347.875C392.305 347.362 389.719 345.445 387.689 343.63C387.628 343.579 387.689 343.497 387.772 343.548C388.816 344.499 389.98 345.313 391.234 345.968C392.346 346.532 393.541 346.891 394.706 347.342C393.675 345.742 392.645 344.204 391.532 342.718C388.571 341.599 385.793 340.047 383.29 338.114C383.218 338.114 383.29 337.93 383.373 337.981C385.842 339.482 388.391 340.851 391.007 342.082C389.338 339.889 387.539 337.797 385.619 335.818C384.681 335.336 383.743 334.844 382.847 334.321C382.835 334.31 382.826 334.296 382.822 334.28C382.818 334.264 382.818 334.247 382.824 334.232C382.83 334.216 382.84 334.203 382.853 334.193C382.866 334.183 382.882 334.178 382.899 334.177C383.649 334.432 384.365 334.776 385.031 335.203C383.98 334.106 382.857 333.029 381.662 331.983Z" fill="#263238"/>
<path d="M381.92 336.956C382.082 337.05 382.234 337.16 382.374 337.284C382.425 337.284 382.374 337.376 382.322 337.356C382.153 337.281 381.991 337.192 381.838 337.089C381.826 337.076 381.819 337.059 381.818 337.042C381.816 337.025 381.821 337.007 381.83 336.992C381.839 336.977 381.853 336.966 381.869 336.959C381.885 336.953 381.903 336.952 381.92 336.956Z" fill="#263238"/>
<path d="M420.143 393.838H387.319L389.966 364.085L390.554 357.523H416.908L417.495 364.085L420.143 393.838Z" fill="#455A64"/>
<path d="M417.495 364.085H389.966L390.554 357.523H416.908L417.495 364.085Z" fill="#263238"/>
<path d="M418.484 352.94H388.978V359.43H418.484V352.94Z" fill="#455A64"/>
</svg>
